<?xml version="1.0" standalone="no"?>
<!DOCTYPE svg PUBLIC "-//W3C//DTD SVG 1.1//EN" "http://www.w3.org/Graphics/SVG/1.1/DTD/svg11.dtd" >
<svg xmlns="http://www.w3.org/2000/svg">
<metadata>
This is a custom SVG webfont generated by Font Squirrel.
Copyright   : 2002 Joerg Hemker published by FontShop International for the FontFont library
</metadata>
<defs>
<font id="Zwow3Italic" horiz-adv-x="1179" >
<font-face units-per-em="2048" ascent="1638" descent="-410" />
<missing-glyph horiz-adv-x="487" />
<glyph unicode=" "  horiz-adv-x="487" />
<glyph unicode="&#x09;" horiz-adv-x="487" />
<glyph unicode="&#xa0;" horiz-adv-x="487" />
<glyph unicode="!" horiz-adv-x="460" d="M47 90q0 47 32 80t81 33t81.5 -33t32.5 -80t-32.5 -80t-81.5 -33t-81 33t-32 80zM137 473l117 893h162l-133 -893h-146z" />
<glyph unicode="&#x22;" horiz-adv-x="794" d="M135 737l68 629h168l-111 -629h-125zM565 737l68 629h168l-111 -629h-125z" />
<glyph unicode="#" horiz-adv-x="1474" d="M141 360l19 129h266l84 334h-254l18 129h267l88 359h131l-90 -359h340l90 359h129l-88 -359h254l-19 -129h-268l-82 -334h254l-18 -129h-267l-90 -360h-129l88 360h-340l-88 -360h-129l88 360h-254zM557 489h340l82 334h-340z" />
<glyph unicode="$" d="M139 55l29 142q121 -80 278 -80q115 0 200 67.5t85 190.5q0 84 -43 134t-151 124l-15 10q-72 49 -111.5 82t-83.5 108.5t-44 163.5q-2 168 97 268.5t255 118.5l24 172h111l-22 -167q57 -4 112 -19.5t82 -30.5l27 -12l-27 -143q-113 68 -242 67q-111 0 -186.5 -57 t-75.5 -180q0 -37 15.5 -70t27 -52.5t52 -51t51 -38.5t65.5 -42l15 -10q106 -72 164.5 -149t60.5 -206q2 -170 -92.5 -276.5t-247.5 -134.5l-25 -174h-110l22 165q-90 0 -164.5 20.5t-103.5 41.5z" />
<glyph unicode="%" horiz-adv-x="1599" d="M139 907q0 178 91.5 303t248.5 125q129 0 203 -80.5t74 -212.5q0 -178 -91.5 -303t-248.5 -125q-129 0 -203 81t-74 212zM262 0l930 1311h160l-932 -1311h-158zM276 938q-12 -86 22 -146.5t114 -60.5q86 0 135 60.5t61 148.5l10 72q12 86 -21.5 146.5t-113.5 60.5 q-86 0 -135 -60.5t-61 -148.5zM850 268q0 178 91 304t249 126q129 0 202.5 -80.5t73.5 -211.5q0 -178 -91 -304.5t-249 -126.5q-129 0 -202.5 81t-73.5 212zM987 301q-12 -88 21.5 -148.5t113.5 -60.5q86 0 135.5 61.5t61.5 149.5l10 70q12 86 -21.5 146.5t-113.5 60.5 q-86 0 -135 -60.5t-62 -148.5z" />
<glyph unicode="&#x26;" horiz-adv-x="1189" d="M61 287q0 82 29 151.5t87.5 123.5t103.5 87t118 76q-100 160 -100 276q0 150 97.5 242t248.5 92q131 0 208 -68.5t77 -189.5q0 -68 -24.5 -122t-84 -104t-99.5 -76.5t-128 -78.5l237 -374q104 109 181 247l63 -135q-70 -129 -168 -227l146 -207h-185l-73 109 q-178 -131 -375 -132q-164 0 -261.5 81.5t-97.5 228.5zM213 297q0 -90 61.5 -141.5t151.5 -51.5q143 0 295 117l-256 402q-78 -47 -124 -83t-87 -101.5t-41 -141.5zM446 1001q0 -78 82 -204q57 33 80 46t68 45t62.5 54.5t35 56t17.5 68.5q0 66 -43 105.5t-111 39.5 q-88 0 -139.5 -60.5t-51.5 -150.5z" />
<glyph unicode="'" horiz-adv-x="364" d="M135 737l68 629h168l-111 -629h-125z" />
<glyph unicode="(" horiz-adv-x="806" d="M188 496q0 481 314 878q80 100 143 154h168l-40 -40q-26 -26 -93.5 -111t-122.5 -175t-108.5 -227t-73.5 -275l-10 -79q-57 -410 141 -791q35 -66 61 -102h-157q-8 10 -23.5 31.5t-53.5 96t-67.5 156.5t-53.5 214.5t-24 269.5z" />
<glyph unicode=")" horiz-adv-x="806" d="M-6 -272l40 40q26 26 93.5 110.5t122.5 174.5t108.5 227.5t73.5 274.5l10 80q59 410 -141 788q-35 68 -61 105h159q8 -10 23.5 -31.5t53.5 -96.5t67.5 -157t53.5 -214t24 -269q0 -481 -316 -879q-80 -100 -143 -153h-168z" />
<glyph unicode="*" horiz-adv-x="942" d="M111 1069l30 98l265 -73l16 272h100l15 -272l264 71l30 -98l-253 -100l145 -228l-82 -61l-172 209l-170 -209l-82 61l148 228z" />
<glyph unicode="+" horiz-adv-x="1247" d="M127 592l16 127h426l66 465h135l-65 -465h423l-18 -127h-424l-65 -465h-136l66 465h-424z" />
<glyph unicode="," horiz-adv-x="421" d="M-104 -256l192 483h170l-235 -483h-127z" />
<glyph unicode="-" horiz-adv-x="729" d="M82 508l18 133h533l-19 -133h-532z" />
<glyph unicode="." horiz-adv-x="466" d="M55 98.5q0 51.5 36 86t87 34.5t86 -34.5t35 -86t-35 -87.5t-86 -36t-87 36t-36 87.5z" />
<glyph unicode="/" horiz-adv-x="905" d="M4 -229l821 1702h142l-820 -1702h-143z" />
<glyph unicode="0" d="M123 446q0 195 32.5 362t98 299t175.5 207t251 75q391 0 391 -474q0 -264 -54 -469.5t-182 -338t-315 -132.5q-205 0 -301 126t-96 345zM293 582q-31 -221 26.5 -344t206.5 -123q285 0 353 485l24 184q31 215 -25.5 341t-201.5 126q-154 0 -242 -134t-117 -353z" />
<glyph unicode="1" d="M98 0l19 133l348 2l149 1067q-158 -70 -354 -131l10 137q102 33 199.5 73t144.5 62l45 23h134l-172 -1231l325 -2l-18 -133h-830z" />
<glyph unicode="2" d="M76 0l22 154q260 188 480 405q293 285 292 459q0 102 -59 168.5t-172 66.5q-176 0 -346 -129l-12 -8l12 156q16 12 46 32.5t123 53.5t187 33q186 0 284.5 -100.5t98.5 -252.5q0 -217 -307 -528q-205 -209 -440 -373v-2l624 -2l-20 -133h-813z" />
<glyph unicode="3" d="M106 51l31 142q127 -78 316 -78q137 0 234 72.5t97 203.5q0 115 -96 177.5t-229 60.5l-178 -2l18 137l164 2q162 2 278.5 71.5t116.5 211.5q0 90 -68.5 147t-173.5 57q-86 0 -170 -24.5t-127 -48.5l-40 -25l14 143q14 10 40.5 25.5t117 41.5t188.5 26q168 0 275.5 -90.5 t107.5 -233.5q0 -84 -33 -154.5t-79 -109.5t-91 -65.5t-78 -37.5l-32 -8v-2q10 -2 26.5 -7t57.5 -26.5t72.5 -51.5t57 -84t25.5 -122q0 -195 -134 -309.5t-337 -114.5q-111 0 -203 18.5t-131 39.5z" />
<glyph unicode="4" d="M66 354l20 158l635 854h244l-125 -877h231l-18 -135h-232l-49 -354h-156l50 354h-600zM223 489h461l109 768h-2l-568 -765v-3z" />
<glyph unicode="5" d="M125 57l29 142q131 -86 297 -86q162 0 257 93t95 253q0 244 -316 243h-262l103 664h725l-19 -133l-573 -2l-60 -395h152q76 0 145.5 -18.5t133 -58.5t101.5 -114t38 -174q0 -219 -142.5 -357.5t-373.5 -138.5q-86 0 -169 20.5t-122 41.5z" />
<glyph unicode="6" d="M141 444q0 178 36 341t107.5 301.5t193.5 221.5t278 83q92 0 168.5 -16.5t107.5 -33.5l31 -16l-29 -139q-100 66 -272 65q-131 0 -229.5 -87t-149.5 -212t-66 -274h2l5 6q6 6 12 13.5t17.5 17.5t23.5 20t30.5 21.5t37 21.5t42 19.5t48 16.5t54 11t60.5 4 q176 0 273.5 -107.5t97.5 -275.5q0 -199 -127 -335t-336 -136q-213 0 -314.5 127t-101.5 342zM303 405.5q0 -129.5 61.5 -212t204.5 -82.5q129 0 207 96t78 231q0 106 -63.5 181t-176.5 75q-143 0 -227 -79.5t-84 -209z" />
<glyph unicode="7" d="M236 0l677 1229l-675 4l18 133h897l-743 -1366h-174z" />
<glyph unicode="8" d="M106 305q0 272 326 387v2q-201 117 -201 318q0 178 138.5 278.5t320.5 100.5q168 0 272.5 -82t104.5 -226q0 -248 -307 -383v-2q96 -39 164.5 -122.5t68.5 -192.5q0 -133 -75.5 -229.5t-181 -137.5t-222.5 -41q-178 0 -293 84t-115 246zM270 330q0 -109 70 -165 t192.5 -56t209.5 71.5t87 179.5q0 178 -251 267q-308 -104 -308 -297zM397 1026q0 -98 57.5 -158.5t166.5 -107.5q117 41 201.5 121t84.5 176q0 98 -64.5 149t-180.5 51q-100 0 -182.5 -62.5t-82.5 -168.5z" />
<glyph unicode="9" d="M133 41l29 139q100 -66 272 -65q190 0 305 169t140 404h-2l-7 -8l-14 -14q-8 -8 -21.5 -20.5t-30 -25t-35.5 -24.5t-44 -23.5t-51.5 -19.5t-59 -13t-67.5 -5q-178 0 -275.5 108.5t-97.5 276.5q0 199 127 335t336 136q215 0 316.5 -127t101.5 -342q0 -176 -37 -340 t-107.5 -302.5t-193.5 -221.5t-279 -83q-90 0 -166.5 16.5t-107.5 33.5zM342 928q0 -106 62.5 -181t175.5 -75q145 0 229 79.5t84 209t-62.5 212t-203.5 82.5q-129 0 -207 -96t-78 -231z" />
<glyph unicode=":" horiz-adv-x="466" d="M55 98.5q0 51.5 36 86t87 34.5t86 -34.5t35 -86t-35 -87.5t-86 -36t-87 36t-36 87.5zM174 925.5q0 51.5 35 87.5t86 36t87 -36t36 -87.5t-36 -86t-87 -34.5t-86 34.5t-35 86z" />
<glyph unicode=";" horiz-adv-x="442" d="M-80 -256l193 483h170l-236 -483h-127zM178 925.5q0 51.5 36 87.5t87 36t87 -36t36 -87.5t-36 -86t-87 -34.5t-87 34.5t-36 86z" />
<glyph unicode="&#x3c;" horiz-adv-x="1247" d="M102 655l1096 555l-20 -147l-820 -414l703 -409l-19 -138z" />
<glyph unicode="=" horiz-adv-x="1247" d="M94 365l19 124h983l-17 -124h-985zM160 823l16 127h985l-18 -127h-983z" />
<glyph unicode="&#x3e;" horiz-adv-x="1247" d="M57 98l21 148l819 411l-702 412l18 137l940 -555z" />
<glyph unicode="?" horiz-adv-x="890" d="M205 90q0 47 31.5 80t80.5 33q51 0 83 -32t32 -81q0 -47 -32.5 -80t-82 -33t-81 33t-31.5 80zM236 1171l14 158q100 61 254 62q147 0 239.5 -76t92.5 -201q0 -102 -53.5 -178t-153.5 -160l-29 -24q-147 -119 -151 -279h-150q0 195 176 352q0 2 14.5 14.5t16.5 12.5l18 18 q51 43 75 68t46.5 67t22.5 89q0 70 -52.5 110.5t-144.5 40.5q-57 0 -116.5 -18.5t-88.5 -36.5z" />
<glyph unicode="@" horiz-adv-x="1921" d="M115 455q0 262 129 479t343 337t462 120q315 0 520 -183.5t205 -466.5q0 -133 -44 -263t-148.5 -228t-246.5 -98q-49 0 -89 12t-64.5 31.5t-42 44t-24.5 48t-11 43t-4 31.5v13h-2q-4 -8 -12.5 -23.5t-36 -54.5t-60.5 -67.5t-86 -53t-110 -24.5q-119 0 -182.5 75.5 t-63.5 196.5q0 137 46 266t147.5 221.5t236.5 92.5q131 0 205 -93l4 -4h2l16 70h127l-104 -436q-68 -272 127 -273q94 0 162.5 84t96 182.5t27.5 184.5q0 248 -163.5 396.5t-429.5 148.5q-332 0 -561.5 -235.5t-229.5 -573.5q0 -276 171 -433t427 -157q131 0 251 24.5 t173 49.5l53 26l-2 -137q-23 -10 -63.5 -25.5t-162.5 -41t-241 -25.5q-324 0 -535.5 193.5t-211.5 525.5zM680 444q0 -172 145 -172q84 0 170 104.5t123 260.5l41 166q-6 10 -19.5 23.5t-61.5 37t-107 23.5q-123 0 -207 -140.5t-84 -302.5z" />
<glyph unicode="A" horiz-adv-x="1298" d="M-14 0l669 1366h176l283 -1366h-162l-67 356h-566l-167 -356h-166zM383 496h477l-137 712h-2z" />
<glyph unicode="B" horiz-adv-x="1124" d="M80 0l192 1366h365q172 0 284.5 -67.5t112.5 -219.5q0 -82 -28.5 -148.5t-68.5 -102t-80 -61.5t-69 -34l-28 -8v-2q8 -2 23.5 -7t54.5 -26.5t68.5 -50.5t54 -80t24.5 -113q0 -223 -144.5 -334.5t-377.5 -111.5h-383zM258 137h221q158 0 249 73t91 224q0 211 -270 211 h-219zM348 784h203q137 0 226 72t89 201q0 172 -245 172h-209z" />
<glyph unicode="C" horiz-adv-x="1001" d="M80 477q0 432 165 673t476 241q170 0 297 -76l-29 -146q-125 76 -264 76q-387 0 -455 -510l-12 -104q-13 -98 -13 -176q0 -149 47 -223q71 -112 238.5 -111.5t337.5 123.5l9 6l-13 -164q-16 -12 -46 -30.5t-125 -49.5t-193 -31q-217 0 -318.5 125t-101.5 377z" />
<glyph unicode="D" horiz-adv-x="1243" d="M80 0l192 1366h430q219 0 335 -124t116 -353q0 -188 -39 -344t-117.5 -281t-214 -194.5t-315.5 -69.5h-387zM258 139h207q205 0 334 124t157 331l25 182q9 67 9 123q0 143 -59 220q-83 108 -251 108h-268z" />
<glyph unicode="E" horiz-adv-x="993" d="M80 0l192 1366h705l-19 -137l-546 -2l-64 -447h502l-21 -139h-501l-70 -502l547 -2l-19 -137h-706z" />
<glyph unicode="F" horiz-adv-x="940" d="M80 0l192 1366h670l-20 -137l-510 -2l-72 -498h477l-20 -139h-475l-84 -590h-158z" />
<glyph unicode="G" horiz-adv-x="1202" d="M102 485q0 444 175.5 675t486.5 231q92 0 180 -24t129 -46l41 -23l-29 -143q-162 90 -325 90q-193 0 -312.5 -127t-152.5 -383l-14 -104q-12 -93 -13 -169q0 -152 50 -229q75 -115 249 -114q68 0 134.5 16.5t99.5 32.5l33 14l55 398h-250l20 143h406l-88 -629 q-20 -12 -57 -32.5t-149 -53.5t-218 -33q-231 0 -341 124t-110 386z" />
<glyph unicode="H" horiz-adv-x="1271" d="M80 0l192 1366h158l-82 -584h619l84 584h157l-192 -1366h-158l90 641h-620l-90 -641h-158z" />
<glyph unicode="I" horiz-adv-x="495" d="M80 0l192 1366h158l-190 -1366h-160z" />
<glyph unicode="J" horiz-adv-x="692" d="M-51 4l20 139q74 -29 148 -28q184 0 221 258l139 993h160l-141 -1014q-55 -377 -349 -377z" />
<glyph unicode="K" horiz-adv-x="1122" d="M80 0l192 1366h158l-86 -623h2l588 623h211l-658 -666q231 -317 533 -700h-203q-92 121 -213 286t-194 269l-76 104h-2l-94 -659h-158z" />
<glyph unicode="L" horiz-adv-x="946" d="M80 0l192 1366h158l-172 -1223l545 -2l-21 -141h-702z" />
<glyph unicode="M" horiz-adv-x="1576" d="M59 0l269 1366h168l286 -725h2l492 725h180l-115 -1366h-151l108 1157h-2l-548 -819l-320 819h-2l-215 -1157h-152z" />
<glyph unicode="N" horiz-adv-x="1277" d="M80 0l192 1366h160l477 -1102h2l150 1102h153l-192 -1366h-160l-475 1102h-2l-152 -1102h-153z" />
<glyph unicode="O" horiz-adv-x="1239" d="M82 475q0 442 167 679t460 237q461 0 460 -502q0 -440 -167.5 -677t-458.5 -237q-461 0 -461 500zM258 631q-11 -82 -11 -152q0 -360 296 -360q365 0 436 510l12 104q11 85 12 155q0 357 -294 357q-365 0 -437 -510z" />
<glyph unicode="P" horiz-adv-x="1081" d="M80 0l192 1366h367q182 0 300 -84t118 -258q0 -242 -150.5 -364.5t-423.5 -122.5h-170l-75 -537h-158zM334 676h166q199 0 295 80t96 254q0 217 -273 217h-206z" />
<glyph unicode="Q" horiz-adv-x="1239" d="M82 475q0 442 167 679t460 237q461 0 460 -502q0 -412 -148.5 -646.5t-406.5 -262.5q-33 -90 -32 -148q0 -113 151 -113q8 0 24.5 1t24.5 1l-10 -108q-47 -6 -88 -6q-248 0 -248 190q0 80 41 180q-395 33 -395 498zM256 629q-12 -86 -12 -157q0 -357 299 -357 q367 0 438 512l14 104q11 82 11 152q0 363 -297 362q-367 0 -439 -512z" />
<glyph unicode="R" horiz-adv-x="1148" d="M80 0l192 1366h385q178 0 295 -79t117 -245q0 -100 -36 -180t-88 -123t-103 -71.5t-88 -36.5l-35 -8v-2q8 -2 20.5 -6.5t41 -31t44.5 -67.5l201 -516h-180l-158 436q-51 137 -164 137h-205l-81 -573h-158zM338 711h199q164 0 265 80.5t101 232.5q0 203 -262 203h-229z " />
<glyph unicode="S" horiz-adv-x="1032" d="M31 61l28 150q14 -10 41 -25.5t116 -40t187 -24.5q135 0 230.5 66.5t95.5 187.5q0 84 -61.5 140t-178.5 110l-20 8q-297 135 -297 364q0 188 137 291t344 103q80 0 159 -17.5t118 -34.5l37 -18l-31 -150q-125 74 -301 74q-127 0 -211 -56t-84 -177q0 -82 68.5 -138.5 t193.5 -111.5l23 -10q272 -121 272 -357q0 -199 -146.5 -309.5t-365.5 -110.5q-98 0 -187 21.5t-128 44.5z" />
<glyph unicode="T" horiz-adv-x="1021" d="M131 1225l21 141h925l-20 -141h-383l-172 -1225h-158l172 1225h-385z" />
<glyph unicode="U" horiz-adv-x="1261" d="M141 371q0 63 9 121l122 874h158l-129 -913q-6 -41 -6 -78q0 -108 51 -173q68 -87 217 -87q301 0 350 356l127 895h158l-123 -877q-37 -262 -165 -388t-355 -126q-414 1 -414 396z" />
<glyph unicode="V" horiz-adv-x="1191" d="M156 1366h161l209 -1208h2l551 1208h164l-647 -1366h-178z" />
<glyph unicode="W" horiz-adv-x="1822" d="M174 1366h148l114 -1208h2l469 1208h203l117 -1208h2l471 1208h155l-552 -1366h-189l-125 1208h-2l-475 -1208h-186z" />
<glyph unicode="X" horiz-adv-x="1198" d="M-45 0l551 707l-334 659h186l265 -541h2l413 541h191l-518 -664l356 -702h-188l-285 582h-2l-447 -582h-190z" />
<glyph unicode="Y" horiz-adv-x="1138" d="M137 1366h172l256 -745h2l463 745h178l-579 -887l-68 -479h-160l68 479z" />
<glyph unicode="Z" horiz-adv-x="1042" d="M-61 0l862 1227l-613 2l21 137h870l-862 -1227l670 -2l-21 -137h-927z" />
<glyph unicode="[" horiz-adv-x="847" d="M156 -272l254 1800h364l-20 -139h-207l-213 -1522h207l-21 -139h-364z" />
<glyph unicode="\" horiz-adv-x="946" d="M217 1473h143l340 -1702h-141z" />
<glyph unicode="]" horiz-adv-x="847" d="M74 -272l20 139h207l215 1522h-209l21 139h364l-254 -1800h-364z" />
<glyph unicode="^" horiz-adv-x="1247" d="M37 317l698 1018l410 -1018h-133l-305 760l-519 -760h-151z" />
<glyph unicode="_" horiz-adv-x="1114" d="M-121 -231l19 131h1114l-19 -131h-1114z" />
<glyph unicode="`" horiz-adv-x="743" d="M338 1452h151l97 -309h-123z" />
<glyph unicode="a" horiz-adv-x="1107" d="M74 377q0 123 24.5 235.5t77.5 214t150.5 162t226.5 60.5q180 0 270 -115l11 -14h2l14 104h151l-102 -729q-12 -90 -25 -295h-135l15 225h-2q-4 -10 -14.5 -26.5t-43 -59.5t-69.5 -76.5t-97.5 -60.5t-124.5 -27q-329 1 -329 402zM238 453q-6 -45 -6 -84q0 -97 35 -163 q50 -93 167 -93q115 0 219.5 134t126.5 302l35 242q-10 14 -28.5 34.5t-81 54t-130.5 33.5q-139 0 -220 -100t-103 -254z" />
<glyph unicode="b" horiz-adv-x="1120" d="M84 0l203 1444h153l-86 -625h2q4 10 13.5 25.5t41 54.5t67.5 69.5t95.5 55.5t122.5 25q162 0 242 -100.5t80 -280.5q0 -117 -25.5 -230.5t-78 -221t-150.5 -174.5t-229 -67q-57 0 -108.5 14.5t-82.5 34t-54.5 39t-31.5 33.5l-10 15h-2l-17 -111h-145zM272 248 q10 -16 28.5 -39t83.5 -60.5t138 -37.5q131 0 212 101t104 253l18 129q6 42 6 78q0 96 -40 156q-54 83 -163 83q-121 0 -227 -141t-131 -326z" />
<glyph unicode="c" horiz-adv-x="847" d="M68 354q0 135 25.5 253t79.5 220.5t153.5 162t232.5 59.5q66 0 124 -12.5t85 -24.5l27 -15l-29 -135q-88 51 -213 51q-115 0 -199 -94t-108 -264l-19 -129q-6 -41 -6 -77q0 -100 46 -159q62 -80 171 -79q63 0 127 22.5t94 44.5l31 23l-14 -150q-10 -8 -29.5 -20.5 t-90.5 -34t-153 -21.5q-168 0 -251.5 101.5t-83.5 277.5z" />
<glyph unicode="d" horiz-adv-x="1120" d="M74 356q0 117 25.5 231.5t78.5 221t151.5 173.5t227.5 67q178 0 268 -115l11 -14h2l73 524h156l-162 -1147l-26 -297h-136l17 229h-2q-4 -10 -14.5 -27.5t-45 -61.5t-73.5 -76.5t-101.5 -60.5t-128.5 -28q-162 0 -241.5 100.5t-79.5 280.5zM236 430q-6 -42 -6 -78 q0 -96 39 -156q54 -83 163 -83q121 0 227.5 141t131.5 326l26 196l-10 16q-6 9 -29.5 32.5t-49.5 42t-69 32.5t-90 14q-131 0 -212 -101t-103 -253z" />
<glyph unicode="e" horiz-adv-x="1005" d="M68 356q0 324 146 508.5t382 184.5q164 0 246 -78t82 -209q0 -162 -190.5 -251t-506.5 -89l-2 -12q-3 -28 -3 -53q0 -103 53 -169q67 -82 200 -82q168 0 311 119l11 8l-15 -155q-14 -12 -38.5 -28.5t-110.5 -45.5t-180 -29q-385 0 -385 381zM242 545q236 0 383 57 t147 158q0 82 -48 125t-136 43q-129 0 -224 -101.5t-122 -281.5z" />
<glyph unicode="f" horiz-adv-x="708" d="M-154 -424l29 125q47 -12 102 -12q150 0 177 194l141 1008h-244l19 133h243l21 150q43 293 313 292q33 0 69 -4t54 -8l21 -6l-27 -125q-49 12 -105 12q-152 0 -176 -194l-16 -117h278l-18 -133h-278l-146 -1041q-43 -293 -313 -292q-33 0 -69 4t-56 8z" />
<glyph unicode="g" horiz-adv-x="1110" d="M35 -352l28 137q150 -94 306 -94q305 0 350 352l22 166h-2q-4 -8 -13 -22.5t-41 -50.5t-67.5 -63.5t-95 -50t-123.5 -22.5q-162 0 -241.5 100.5t-79.5 280.5q0 119 25.5 231.5t79 213t150.5 162t226 61.5q90 0 162 -33t98 -66l27 -35h2l14 109h150l-138 -973 q-72 -494 -495 -493q-96 0 -182 22.5t-123 44.5zM240 453q-7 -44 -7 -83q0 -93 38 -151q54 -82 165 -82q121 0 226.5 131t132.5 314l26 194q-10 16 -28.5 39t-82 60.5t-137.5 37.5q-133 0 -215 -94t-102 -237z" />
<glyph unicode="h" horiz-adv-x="1112" d="M68 0l202 1444h156l-88 -633h2q4 10 14.5 25.5t44 56.5t72.5 72.5t99.5 57.5t125.5 26q137 0 207 -79t70 -212q0 -39 -6 -82l-95 -676h-155l94 682q4 26 4 51q0 61 -25 110q-36 69 -141 68q-117 0 -228.5 -143t-133.5 -309l-64 -459h-155z" />
<glyph unicode="i" horiz-adv-x="489" d="M82 0l143 1024h156l-145 -1024h-154zM231 1319q0 45 33 78t78 33q47 0 80 -33t33 -78t-33 -78t-80 -33q-45 0 -78 33t-33 78z" />
<glyph unicode="j" horiz-adv-x="509" d="M-201 -424l29 125q37 -12 92 -12q141 0 168 194l158 1141h155l-165 -1174q-41 -293 -304 -292zM252 1319q0 45 32.5 78t77.5 33q47 0 80 -33t33 -78t-32.5 -78t-80.5 -33q-45 0 -77.5 33t-32.5 78z" />
<glyph unicode="k" horiz-adv-x="1011" d="M68 0l202 1444h156l-123 -871h2l471 451h201l-516 -481q211 -264 459 -543h-193q-82 90 -188.5 223t-173.5 221l-66 88h-2l-74 -532h-155z" />
<glyph unicode="l" horiz-adv-x="477" d="M76 0l203 1444h155l-203 -1444h-155z" />
<glyph unicode="m" horiz-adv-x="1681" d="M70 0l145 1024h143l-28 -223h2q4 10 14 26.5t43 59.5t71 75.5t96 59.5t122 27q233 0 242 -267q6 10 16 28.5t45 65t75 81t102.5 63.5t127.5 29q127 0 191.5 -78t64.5 -209q0 -41 -6 -86l-94 -676h-156l94 682q5 31 5 58q0 59 -21 105q-31 67 -125 66q-106 0 -210.5 -130 t-127.5 -302l-67 -479h-156l94 682q5 31 5 58q0 59 -21 105q-31 67 -125 66q-106 0 -210 -132t-128 -306l-68 -473h-155z" />
<glyph unicode="n" horiz-adv-x="1116" d="M72 0l145 1024h143l-28 -223h2q6 10 15 26.5t44 59.5t75 75.5t102.5 59.5t129.5 27q137 0 207 -79t70 -212q0 -39 -6 -82l-94 -676h-156l94 682q4 26 4 51q0 61 -25 110q-36 69 -141 68q-121 0 -229.5 -142t-134.5 -327l-62 -442h-155z" />
<glyph unicode="o" horiz-adv-x="1069" d="M74 354q0 324 135 509.5t362 185.5q195 0 293.5 -96.5t98.5 -282.5q0 -322 -135.5 -508.5t-366.5 -186.5q-190 0 -288.5 97.5t-98.5 281.5zM233 424q-5 -40 -5 -75q0 -98 42 -160q57 -83 188.5 -83t216.5 98.5t107 260.5l21 135q5 39 5 74q0 99 -43 161q-58 83 -189.5 83 t-215.5 -98.5t-106 -260.5z" />
<glyph unicode="p" horiz-adv-x="1103" d="M6 -420l201 1444h143l-26 -211h2q4 10 14 25.5t44 56.5t72 71.5t97 56.5t123 26q162 0 241.5 -100.5t79.5 -280.5q0 -117 -25.5 -231.5t-77.5 -221t-150.5 -173.5t-227.5 -67q-178 0 -270 115l-10 14h-3l-73 -524h-154zM254 248q10 -16 28.5 -39t82 -60.5t137.5 -37.5 q133 0 214 101t103 253l17 129q7 44 6 82q0 94 -39 152q-55 83 -164 83q-121 0 -227.5 -141t-130.5 -326z" />
<glyph unicode="q" horiz-adv-x="1114" d="M74 356q0 117 24.5 230.5t77.5 221t151.5 174.5t229.5 67q178 0 274 -119l11 -15h2l16 109h148l-203 -1444h-154l86 625h-2q-4 -10 -13 -25.5t-41 -54.5t-67.5 -69.5t-95 -55.5t-123.5 -25q-162 0 -241.5 100.5t-79.5 280.5zM236 430q-7 -44 -7 -82q0 -94 39 -152 q55 -83 164 -83q121 0 227.5 141t131.5 326l26 196l-10 16q-6 9 -29.5 32.5t-49.5 42t-69 32.5t-90 14q-131 0 -212 -101t-103 -253z" />
<glyph unicode="r" horiz-adv-x="712" d="M68 0l145 1024h133l-27 -211h3q4 10 13 25.5t42 56.5t69.5 71.5t95 56.5t122.5 26l49 -5l-31 -145q-14 6 -47 6q-121 0 -220.5 -124t-123.5 -287l-68 -494h-155z" />
<glyph unicode="s" horiz-adv-x="878" d="M31 45l28 135q102 -78 265 -78q109 0 176 47.5t67 139.5q0 43 -27.5 76.5t-58 50t-84.5 39.5l-51 20q-219 92 -219 279q0 131 102.5 213t280.5 82q154 0 270 -70l-20 -139q-123 82 -260 82q-84 0 -148.5 -35t-64.5 -119q0 -57 39 -93t123 -71l51 -20q229 -98 229 -285 q0 -162 -123 -243t-295 -81q-76 0 -146.5 17.5t-103.5 36.5z" />
<glyph unicode="t" horiz-adv-x="761" d="M51 891l19 133h243l37 266l158 21l-39 -287h279l-19 -133h-278l-95 -653q-2 -17 -2 -33q0 -101 107 -101q35 0 76 12.5t65 24.5l23 13l-11 -134q-92 -45 -190 -45q-225 0 -225 208q0 33 6 71l90 637h-244z" />
<glyph unicode="u" horiz-adv-x="1105" d="M115 268q0 39 6 80l94 676h156l-95 -682q-3 -24 -3 -45q0 -66 28 -117q37 -68 135 -67q106 0 215 141t133 313l64 457h156l-103 -727q-8 -57 -14 -131t-10 -121l-3 -45h-141l15 229h-3q-6 -10 -15 -27.5t-44 -61.5t-74 -76.5t-99 -60.5t-124 -28q-137 0 -205.5 79 t-68.5 214z" />
<glyph unicode="v" horiz-adv-x="1026" d="M115 1024h151l174 -889h2l424 889h158l-512 -1024h-176z" />
<glyph unicode="w" horiz-adv-x="1501" d="M113 1024h151l88 -864h2l355 864h188l111 -864h2l331 864h154l-420 -1024h-174l-117 864h-2l-362 -864h-174z" />
<glyph unicode="x" horiz-adv-x="993" d="M-55 0l440 532l-270 492h178l201 -385h2l311 385h184l-411 -498l292 -526h-180l-221 422h-2l-338 -422h-186z" />
<glyph unicode="y" horiz-adv-x="1046" d="M90 -438q59 92 126 202.5t103 174.5l35 65l-250 1020h158l193 -864h2l432 864h170q-416 -844 -785 -1462h-184z" />
<glyph unicode="z" horiz-adv-x="976" d="M-2 0l676 891l-479 2l18 131h731l-674 -891l539 -2l-18 -131h-793z" />
<glyph unicode="{" horiz-adv-x="833" d="M129 563l18 129q8 0 21.5 1t47.5 13.5t61.5 34t53 69.5t31.5 112l25 249q12 109 59.5 186t111 110.5t113.5 47t93 13.5h18l-20 -133h-4q-18 0 -43 -7.5t-65 -28t-70.5 -72.5t-38.5 -128l-31 -270q-23 -203 -180 -250l-54 -10v-2q4 0 11.5 -1t29 -7.5t37 -18.5t38 -33.5 t31.5 -53.5t16 -79t-7 -108l-45 -271q-10 -63 8.5 -106t53 -59.5t57 -22.5t37.5 -6h4l-19 -133h-18q-338 0 -266 399l45 252q25 137 -117 176z" />
<glyph unicode="|" horiz-adv-x="620" d="M94 -420l262 1864h136l-263 -1864h-135z" />
<glyph unicode="}" horiz-adv-x="833" d="M53 -272l19 133h4q16 0 39.5 6t62.5 24.5t71 67.5t40 121q2 0 9 63.5t15.5 128t8.5 66.5q8 76 26 125q53 139 189 162l20 2v2q-4 0 -11 1t-28.5 7t-37 18.5t-38 34t-32 53t-16.5 78.5t7 109l45 270q10 63 -7 106.5t-52 59.5t-57.5 22.5t-38.5 6.5h-4l18 133h19 q338 0 266 -400l-45 -251q-25 -137 117 -177l43 -8l-17 -129q-8 0 -21.5 -1t-47 -13t-61.5 -33.5t-54.5 -70t-32.5 -111.5l-25 -250q-10 -88 -43.5 -155.5t-75.5 -104.5t-94.5 -60.5t-90.5 -29.5t-70 -6h-19z" />
<glyph unicode="~" horiz-adv-x="1247" d="M133 547l10 139q117 90 269 90q90 0 230 -54t218 -54q61 0 127 24.5t98 48.5l35 23l-10 -137q-14 -10 -37.5 -25.5t-94.5 -41t-136 -25.5q-88 0 -229.5 55t-219.5 55q-63 0 -127.5 -24.5t-97.5 -49.5z" />
<glyph unicode="&#xa1;" horiz-adv-x="462" d="M63 0l134 895h145l-117 -895h-162zM207 1276q0 47 31.5 80t81 33t82 -33t32.5 -80t-32.5 -80t-82 -33t-81 33t-31.5 80z" />
<glyph unicode="&#xa2;" d="M225 526q0 125 21.5 235.5t68.5 211t134.5 165t205.5 79.5l23 149h110l-20 -147q121 -8 199 -58l-29 -131q-98 59 -219 60q-125 0 -211 -94.5t-111 -266.5l-18 -133q-23 -158 40.5 -237.5t184.5 -79.5q141 4 260 104l-14 -150q-82 -72 -232 -81l-20 -152h-113l21 154 q-281 32 -281 372z" />
<glyph unicode="&#xa3;" d="M135 0l23 154q10 2 25.5 7t57.5 28.5t73.5 54t60 88t33.5 127.5l12 203h-193l27 124h174l10 195q10 201 120 304.5t273 103.5q59 0 112.5 -12.5t76.5 -24.5l22 -13l-24 -131q-82 43 -191 43q-219 0 -235 -270l-10 -195h389l-25 -124h-373l-10 -187q-12 -223 -176 -317 l-41 -21v-2h535l-19 -135h-727z" />
<glyph unicode="&#xa4;" horiz-adv-x="1269" d="M131 274l156 156q-82 111 -82 252q0 139 82 254l-156 156l94 94l156 -156q113 84 254 84t254 -84l155 156l95 -94l-156 -156q82 -115 82 -254q0 -141 -82 -252l156 -156l-95 -96l-155 158q-113 -84 -254 -84t-254 84l-156 -158zM328 682q0 -127 90 -217t217 -90t217 90 t90 217t-90 218t-217 91t-217 -91t-90 -218z" />
<glyph unicode="&#xa5;" d="M104 246l27 123h346l27 186h-357l29 123h291l-225 688h151l199 -678h2l387 678h162l-418 -688h301l-25 -123h-346l-26 -186h354l-27 -123h-344l-34 -246h-154l37 246h-357z" />
<glyph unicode="&#xa6;" horiz-adv-x="620" d="M94 -420l88 623h135l-88 -623h-135zM268 819l88 625h136l-89 -625h-135z" />
<glyph unicode="&#xa7;" horiz-adv-x="985" d="M51 -274l25 137q98 -63 260 -64q94 0 163.5 53.5t69.5 147.5q0 129 -166 207l-79 37q-211 98 -211 307q0 84 33.5 150.5t85 102.5t80 51t48.5 22h2v2h-2q-102 96 -110 243q0 152 108.5 241t280.5 89q63 0 124.5 -13.5t92.5 -25.5l29 -12l-27 -133q-96 49 -223 49 q-106 0 -167.5 -47t-61.5 -133q0 -70 39.5 -116t132.5 -91l71 -33q213 -100 213 -299q0 -213 -188 -319l-60 -27v-2q12 -8 31 -25.5t49.5 -79t30.5 -133.5q0 -150 -114.5 -248t-280.5 -98q-170 1 -279 60zM262 578q0 -78 45 -127.5t139 -90.5l66 -28q8 2 21.5 6t48 22.5 t61.5 43t48.5 67.5t21.5 94q0 76 -41 121t-133 86l-66 31q-8 -2 -22.5 -6t-51.5 -21.5t-64.5 -41t-50 -65.5t-22.5 -91z" />
<glyph unicode="&#xa8;" horiz-adv-x="743" d="M127 1296q0 45 31.5 76t77.5 31q43 0 74.5 -31t31.5 -76t-31.5 -76.5t-74.5 -31.5q-45 0 -77 31.5t-32 76.5zM588 1296q0 45 31.5 76t76.5 31t76 -31t31 -76t-31 -76.5t-76 -31.5t-76.5 31.5t-31.5 76.5z" />
<glyph unicode="&#xa9;" horiz-adv-x="1642" d="M106 684q0 317 208 519t515.5 202t515 -203t207.5 -520t-207.5 -519t-515.5 -202q-305 0 -514 204t-209 519zM221 684q0 -268 176 -442t434.5 -174t433.5 174t175 442t-176.5 442t-434.5 174t-433 -174t-175 -442zM559 684q0 352 297 352q41 0 81 -9t58 -19l21 -9 l-6 -104q-72 39 -144 39q-86 0 -137 -52.5t-51 -152.5v-92q0 -104 51 -154.5t135 -50.5q70 0 152 51l8 -104q-70 -47 -190 -47q-275 0 -275 352z" />
<glyph unicode="&#xaa;" horiz-adv-x="776" d="M6 0l14 111h576l-14 -111h-576zM86 688q0 111 27.5 206t106.5 169t198 74q129 -4 180 -80l8 63h127l-69 -483l-19 -203h-115l9 135h-2q-2 -6 -8.5 -16t-26 -37t-42 -46t-61.5 -35.5t-80 -16.5q-233 0 -233 270zM221 735q-12 -96 19.5 -151.5t99.5 -55.5q72 0 137.5 84 t81.5 193l23 149q-53 72 -148 72q-86 0 -137 -63.5t-66 -161.5z" />
<glyph unicode="&#xab;" horiz-adv-x="1200" d="M88 561l363 463h172l-371 -473l233 -473h-159zM612 561l363 463h174l-373 -473l236 -473h-160z" />
<glyph unicode="&#xac;" horiz-adv-x="1247" d="M143 713l19 125h983l-72 -516h-135l55 391h-850z" />
<glyph unicode="&#xad;" horiz-adv-x="729" d="M82 508l18 133h533l-19 -133h-532z" />
<glyph unicode="&#xae;" horiz-adv-x="1308" d="M98 834q0 252 168 411.5t416 159.5t416 -161t168 -413q0 -250 -168 -410.5t-416 -160.5q-246 0 -415 162t-169 412zM203 833.5q0 -208.5 138 -344t343 -135.5q203 0 341 135.5t138 344t-138 343t-343 134.5q-203 0 -341 -134.5t-138 -343zM516 565v533h176 q188 0 189 -156q0 -92 -109 -127v-2q29 -8 41 -43l72 -205h-103l-55 170q-12 43 -59 43h-62v-213h-90zM606 856h64q117 0 116 84q0 41 -22.5 60.5t-79.5 19.5h-78v-164z" />
<glyph unicode="&#xaf;" horiz-adv-x="743" d="M141 1317l19 135h657l-18 -135h-658z" />
<glyph unicode="&#xb0;" horiz-adv-x="862" d="M147 1050.5q0 141.5 99.5 241t241 99.5t240.5 -99.5t99 -241t-99 -240.5t-240.5 -99t-241 99t-99.5 240.5zM283 1051q0 -88 59 -148.5t145 -60.5t145.5 60.5t59.5 148.5q0 86 -59.5 147.5t-145.5 61.5t-145 -61.5t-59 -147.5z" />
<glyph unicode="&#xb1;" horiz-adv-x="1247" d="M45 10l16 125h986l-19 -125h-983zM127 592l16 127h426l54 387h135l-53 -387h423l-18 -127h-424l-55 -385h-133l53 385h-424z" />
<glyph unicode="&#xb2;" horiz-adv-x="706" d="M45 432l16 121q162 123 299 258q170 164 170 270q0 133 -133 133q-119 0 -223 -81l10 120q86 74 228 74q129 0 192.5 -63.5t63.5 -163.5q0 -139 -187 -330q-57 -55 -122.5 -112.5t-102.5 -86.5l-37 -28v-2h371l-15 -109h-530z" />
<glyph unicode="&#xb3;" horiz-adv-x="724" d="M59 469l25 113q94 -51 213 -52q88 0 147.5 40t59.5 118q0 70 -57.5 105.5t-147.5 33.5l-129 -2l14 109l119 2q106 2 176 43t70 125q0 53 -41 83t-113 30q-121 0 -227 -64l10 115q94 59 238 59q119 0 191.5 -56.5t72.5 -150.5q0 -55 -20.5 -99t-49 -69.5t-58.5 -42 t-50 -22.5l-21 -6v-2l16.5 -5.5t37 -17.5t46 -32.5t36 -54.5t16.5 -79q0 -123 -88 -197.5t-232 -74.5q-74 0 -137 12t-90 25z" />
<glyph unicode="&#xb4;" horiz-adv-x="743" d="M295 1143l182 309h160l-211 -309h-131z" />
<glyph unicode="&#xb5;" horiz-adv-x="1107" d="M12 -424l203 1448h156l-95 -682q-12 -92 24 -160.5t136 -68.5q113 0 216.5 122.5t127.5 292.5l68 496h156l-103 -727q-8 -63 -15 -138t-9 -118l-3 -41h-133l11 209h-2q-4 -10 -14.5 -25.5t-43.5 -55.5t-70.5 -70.5t-98 -56.5t-126.5 -26q-61 0 -104 19.5t-56.5 35 t-15.5 23.5q0 -2 -6 -66.5t-20.5 -183t-28.5 -227.5h-154z" />
<glyph unicode="&#xb6;" horiz-adv-x="1320" d="M141 860q0 225 147.5 365.5t430.5 140.5h141l-190 -1366h-142l60 424q-18 0 -48 3t-107 28.5t-136 66.5t-107.5 130t-48.5 208zM291 858q0 -213 215 -280q55 -16 100 -19l94 674q-174 0 -291.5 -92.5t-117.5 -282.5zM870 0l191 1366h141l-190 -1366h-142z" />
<glyph unicode="&#xb7;" horiz-adv-x="466" d="M106 575q0 49 35 84t84 35t83 -34.5t34 -84.5q0 -47 -34 -81.5t-83 -34.5t-84 34.5t-35 81.5z" />
<glyph unicode="&#xb8;" horiz-adv-x="743" d="M41 -469l16 104q41 -4 56 -4q119 0 153.5 61.5t34.5 201.5h127q0 -8 1 -27t1 -25q0 -315 -307 -315q-25 0 -82 4z" />
<glyph unicode="&#xb9;" horiz-adv-x="557" d="M100 1092l9 110q66 23 131 49.5t100 42.5l33 17h102l-123 -879h-129l105 746q-101 -45 -228 -86z" />
<glyph unicode="&#xba;" horiz-adv-x="768" d="M14 0l17 111h563l-16 -111h-564zM96 674q0 215 93.5 338t252.5 123q135 0 205 -65.5t70 -190.5q0 -213 -94.5 -337t-255.5 -124q-271 0 -271 256zM229 717q-29 -190 136 -191q84 0 137 60.5t67 161.5l15 88q14 92 -22 141t-118 49t-135 -60.5t-67 -160.5z" />
<glyph unicode="&#xbb;" horiz-adv-x="1200" d="M23 78l372 473l-235 473h159l238 -483l-362 -463h-172zM547 78l373 473l-234 473h158l237 -483l-362 -463h-172z" />
<glyph unicode="&#xbc;" horiz-adv-x="1679" d="M100 1092l9 110q66 23 131 49.5t100 42.5l33 17h102l-123 -879h-129l105 746q-101 -45 -228 -86zM160 -164l1071 1704h153l-1069 -1704h-155zM870 223l17 121l416 535h190l-78 -545h148l-17 -111h-149l-31 -223h-129l31 223h-398zM997 332q170 2 289 2l66 459h-2 l-353 -459v-2z" />
<glyph unicode="&#xbd;" horiz-adv-x="1628" d="M100 1092l9 110q66 23 131 49.5t100 42.5l33 17h102l-123 -879h-129l105 746q-101 -45 -228 -86zM160 -164l1071 1704h153l-1069 -1704h-155zM907 0l15 121q162 121 301 256q172 172 172 272q0 59 -33 95t-102 36q-55 0 -111.5 -20.5t-85.5 -40.5l-29 -21l10 121 q88 76 230 76q129 0 191.5 -64.5t62.5 -162.5q0 -139 -187 -330q-55 -57 -120.5 -113.5t-102.5 -85.5l-39 -28v-2h373l-16 -109h-529z" />
<glyph unicode="&#xbe;" horiz-adv-x="1828" d="M59 469l25 113q94 -51 213 -52q88 0 147.5 40t59.5 118q0 70 -57.5 105.5t-147.5 33.5l-129 -2l14 109l119 2q106 2 176 43t70 125q0 53 -41 83t-113 30q-121 0 -227 -64l10 115q94 59 238 59q119 0 191.5 -56.5t72.5 -150.5q0 -55 -20.5 -99t-49 -69.5t-58.5 -42 t-50 -22.5l-21 -6v-2l16.5 -5.5t37 -17.5t46 -32.5t36 -54.5t16.5 -79q0 -123 -88 -197.5t-232 -74.5q-74 0 -137 12t-90 25zM301 -164l1071 1704h154l-1069 -1704h-156zM1018 223l18 121l414 535h192l-79 -545h147l-16 -111h-148l-33 -223h-129l33 223h-399zM1147 332 q168 2 287 2l67 459h-2l-352 -459v-2z" />
<glyph unicode="&#xbf;" horiz-adv-x="890" d="M76 254q0 102 53 178t154 160l28 22q147 123 152 281h149q0 -195 -176 -352l-6 -6l-16 -17l-8 -6q-2 -2 -8.5 -7t-10.5 -9q-51 -43 -74.5 -67.5t-46 -66.5t-22.5 -90q0 -70 52 -111.5t144 -41.5q127 0 236 76l-12 -158q-102 -61 -256 -62q-147 0 -239.5 76t-92.5 201z M479 1278q0 47 33 80t82 33t81 -33t32 -80t-32 -80t-81 -33t-82 32t-33 81z" />
<glyph unicode="&#xc0;" horiz-adv-x="1298" d="M-14 0l669 1366h176l283 -1366h-162l-67 356h-566l-167 -356h-166zM383 496h477l-137 712h-2zM588 1780h151l97 -310h-123z" />
<glyph unicode="&#xc1;" horiz-adv-x="1298" d="M-14 0l669 1366h176l283 -1366h-162l-67 356h-566l-167 -356h-166zM383 496h477l-137 712h-2zM625 1470l182 310h160l-211 -310h-131z" />
<glyph unicode="&#xc2;" horiz-adv-x="1298" d="M-14 0l669 1366h176l283 -1366h-162l-67 356h-566l-167 -356h-166zM383 496h477l-137 712h-2zM420 1470l285 310h147l199 -310h-138l-141 203l-199 -203h-153z" />
<glyph unicode="&#xc3;" horiz-adv-x="1298" d="M-14 0l669 1366h176l283 -1366h-162l-67 356h-566l-167 -356h-166zM383 496h477l-137 712h-2zM406 1556q0 10 2 26.5t13 54.5t29.5 67t59.5 52.5t96 23.5q57 0 153.5 -50.5t127.5 -50.5q37 0 58.5 25t23.5 49l2 27h112q0 -10 -1 -26.5t-12 -54.5t-30.5 -66.5t-60.5 -52.5 t-96.5 -24t-151.5 49.5t-129 49.5q-37 0 -58.5 -24.5t-23.5 -49.5l-2 -25h-112z" />
<glyph unicode="&#xc4;" horiz-adv-x="1298" d="M-14 0l669 1366h176l283 -1366h-162l-67 356h-566l-167 -356h-166zM383 496h477l-137 712h-2zM418 1624q0 45 31.5 76t76.5 31q43 0 75 -31t32 -76t-32 -76.5t-75 -31.5q-45 0 -76.5 31.5t-31.5 76.5zM879 1624q0 45 31.5 76t76.5 31t76 -31t31 -76t-31 -76.5t-76 -31.5 t-76.5 31.5t-31.5 76.5z" />
<glyph unicode="&#xc5;" horiz-adv-x="1298" d="M-14 0l669 1366h176l283 -1366h-162l-67 356h-566l-167 -356h-166zM383 496h477l-137 712h-2zM549 1661q0 84 60.5 142.5t148.5 58.5q90 0 149.5 -58.5t59.5 -142.5t-59.5 -141.5t-149.5 -57.5q-88 0 -148.5 57.5t-60.5 141.5zM649 1661q0 -47 32 -79t77 -32t77.5 32 t32.5 79t-31.5 80t-78.5 33q-45 0 -77 -33t-32 -80z" />
<glyph unicode="&#xc6;" horiz-adv-x="1751" d="M-31 0l949 1366h800l-18 -137l-545 -2l-61 -447h497l-20 -139h-498l-69 -502l561 -2l-21 -137h-713l58 401h-465l-274 -401h-181zM518 541h389l101 710h-2z" />
<glyph unicode="&#xc7;" horiz-adv-x="1001" d="M80 477q0 432 165 673t476 241q170 0 297 -76l-29 -146q-125 76 -264 76q-387 0 -455 -510l-12 -104q-37 -287 33.5 -398.5t238.5 -111.5t338 123l9 6l-13 -164q-16 -12 -46 -30.5t-125 -49.5t-193 -31q-217 0 -318.5 125t-101.5 377zM201 -469l16 104q41 -4 55 -4 q119 0 154 61.5t35 201.5h127q0 -8 1 -27t1 -25q0 -315 -307 -315q-25 0 -82 4z" />
<glyph unicode="&#xc8;" horiz-adv-x="993" d="M80 0l192 1366h705l-19 -137l-546 -2l-64 -447h502l-21 -139h-501l-70 -502l547 -2l-19 -137h-706zM500 1780h151l97 -310h-123z" />
<glyph unicode="&#xc9;" horiz-adv-x="993" d="M80 0l192 1366h705l-19 -137l-546 -2l-64 -447h502l-21 -139h-501l-70 -502l547 -2l-19 -137h-706zM504 1470l182 310h160l-211 -310h-131z" />
<glyph unicode="&#xca;" horiz-adv-x="993" d="M80 0l192 1366h705l-19 -137l-546 -2l-64 -447h502l-21 -139h-501l-70 -502l547 -2l-19 -137h-706zM297 1470l285 310h147l199 -310h-137l-142 203l-198 -203h-154z" />
<glyph unicode="&#xcb;" horiz-adv-x="993" d="M80 0l192 1366h705l-19 -137l-546 -2l-64 -447h502l-21 -139h-501l-70 -502l547 -2l-19 -137h-706zM293 1624q0 45 31.5 76t76.5 31q43 0 75 -31t32 -76t-32 -76.5t-75 -31.5q-45 0 -76.5 31.5t-31.5 76.5zM754 1624q0 45 31.5 76t76.5 31t76 -31t31 -76t-31 -76.5 t-76 -31.5t-76.5 31.5t-31.5 76.5z" />
<glyph unicode="&#xcc;" horiz-adv-x="495" d="M80 0l192 1366h158l-190 -1366h-160zM221 1780h152l96 -310h-123z" />
<glyph unicode="&#xcd;" horiz-adv-x="495" d="M80 0l192 1366h158l-190 -1366h-160zM238 1470l182 310h160l-211 -310h-131z" />
<glyph unicode="&#xce;" horiz-adv-x="495" d="M80 0l192 1366h158l-190 -1366h-160zM80 1470l285 310h147l199 -310h-138l-141 203l-199 -203h-153z" />
<glyph unicode="&#xcf;" horiz-adv-x="495" d="M80 0l192 1366h158l-190 -1366h-160zM80 1624q0 45 31.5 76t76.5 31q43 0 75 -31t32 -76t-32 -76.5t-75 -31.5q-45 0 -76.5 31.5t-31.5 76.5zM541 1624q0 45 31.5 76t76.5 31t76 -31t31 -76t-31 -76.5t-76 -31.5t-76.5 31.5t-31.5 76.5z" />
<glyph unicode="&#xd0;" horiz-adv-x="1243" d="M0 618l16 130h168l88 618h430q219 0 335 -124t116 -353q0 -188 -39 -344t-117.5 -281t-214 -194.5t-315.5 -69.5h-387l88 618h-168zM258 139h207q205 0 334 124t157 331l25 182q33 236 -50 343.5t-251 107.5h-268l-68 -479h244l-17 -130h-245z" />
<glyph unicode="&#xd1;" horiz-adv-x="1277" d="M80 0l192 1366h160l477 -1102h2l150 1102h153l-192 -1366h-160l-475 1102h-2l-152 -1102h-153zM406 1556q0 10 2 26.5t13 54.5t29.5 67t59.5 52.5t96 23.5q57 0 153.5 -50.5t127.5 -50.5q37 0 58.5 25t23.5 49l2 27h112q0 -10 -1 -26.5t-12 -54.5t-30.5 -66.5 t-60.5 -52.5t-96.5 -24t-151.5 49.5t-129 49.5q-37 0 -58.5 -24.5t-23.5 -49.5l-2 -25h-112z" />
<glyph unicode="&#xd2;" horiz-adv-x="1239" d="M82 475q0 442 167 679t460 237q461 0 460 -502q0 -440 -167.5 -677t-458.5 -237q-461 0 -461 500zM258 631q-68 -512 285 -512q365 0 436 510l12 104q70 512 -282 512q-365 0 -437 -510zM604 1780h152l96 -310h-123z" />
<glyph unicode="&#xd3;" horiz-adv-x="1239" d="M82 475q0 442 167 679t460 237q461 0 460 -502q0 -440 -167.5 -677t-458.5 -237q-461 0 -461 500zM258 631q-68 -512 285 -512q365 0 436 510l12 104q70 512 -282 512q-365 0 -437 -510zM600 1470l182 310h160l-211 -310h-131z" />
<glyph unicode="&#xd4;" horiz-adv-x="1239" d="M82 475q0 442 167 679t460 237q461 0 460 -502q0 -440 -167.5 -677t-458.5 -237q-461 0 -461 500zM258 631q-68 -512 285 -512q365 0 436 510l12 104q70 512 -282 512q-365 0 -437 -510zM395 1470l285 310h147l199 -310h-137l-141 203l-199 -203h-154z" />
<glyph unicode="&#xd5;" horiz-adv-x="1239" d="M82 475q0 442 167 679t460 237q461 0 460 -502q0 -440 -167.5 -677t-458.5 -237q-461 0 -461 500zM258 631q-68 -512 285 -512q365 0 436 510l12 104q70 512 -282 512q-365 0 -437 -510zM381 1556q0 10 2 26.5t13.5 54.5t29.5 67t59 52.5t97 23.5q57 0 153 -50.5 t127 -50.5q37 0 58.5 25t23.5 49l2 27h113q0 -10 -1 -26.5t-12.5 -54.5t-31 -66.5t-60.5 -52.5t-96 -24t-151.5 49.5t-128.5 49.5q-37 0 -58.5 -24.5t-23.5 -49.5l-2 -25h-113z" />
<glyph unicode="&#xd6;" horiz-adv-x="1239" d="M82 475q0 442 167 679t460 237q461 0 460 -502q0 -440 -167.5 -677t-458.5 -237q-461 0 -461 500zM258 631q-68 -512 285 -512q365 0 436 510l12 104q70 512 -282 512q-365 0 -437 -510zM395 1624q0 45 32 76t77 31q43 0 74.5 -31t31.5 -76t-31.5 -76.5t-74.5 -31.5 q-45 0 -77 31.5t-32 76.5zM856 1624q0 45 32 76t77 31t75.5 -31t30.5 -76t-30.5 -76.5t-75.5 -31.5t-77 31.5t-32 76.5z" />
<glyph unicode="&#xd7;" horiz-adv-x="1247" d="M119 291l416 364l-314 365l107 92l313 -364l416 364l78 -92l-414 -365l311 -364l-104 -92l-314 364l-415 -364z" />
<glyph unicode="&#xd8;" horiz-adv-x="1220" d="M82 475q0 442 167 679t460 237q96 0 176 -23l98 217h109l-117 -256q195 -115 194 -440q0 -440 -167.5 -677t-458.5 -237q-100 0 -174 21l-97 -215h-108l115 254q-197 112 -197 440zM258 631q-45 -328 88 -447l481 1047l-6 2q-6 2 -16 4t-24.5 4t-33 4t-38.5 2 q-367 0 -439 -512zM426 133l8 -2q6 -2 18.5 -4t27 -4t31.5 -4t32 -2q369 0 436 512l14 104q45 324 -86 447z" />
<glyph unicode="&#xd9;" horiz-adv-x="1261" d="M141 371q0 63 9 121l122 874h158l-129 -913q-23 -164 45 -251t217 -87q301 0 350 356l127 895h158l-123 -877q-37 -262 -165 -388t-355 -126q-414 1 -414 396zM606 1780h152l96 -310h-123z" />
<glyph unicode="&#xda;" horiz-adv-x="1261" d="M141 371q0 63 9 121l122 874h158l-129 -913q-23 -164 45 -251t217 -87q301 0 350 356l127 895h158l-123 -877q-37 -262 -165 -388t-355 -126q-414 1 -414 396zM590 1470l182 310h160l-211 -310h-131z" />
<glyph unicode="&#xdb;" horiz-adv-x="1261" d="M141 371q0 63 9 121l122 874h158l-129 -913q-23 -164 45 -251t217 -87q301 0 350 356l127 895h158l-123 -877q-37 -262 -165 -388t-355 -126q-414 1 -414 396zM418 1470l284 310h148l199 -310h-138l-141 203l-199 -203h-153z" />
<glyph unicode="&#xdc;" horiz-adv-x="1261" d="M141 371q0 63 9 121l122 874h158l-129 -913q-23 -164 45 -251t217 -87q301 0 350 356l127 895h158l-123 -877q-37 -262 -165 -388t-355 -126q-414 1 -414 396zM416 1624q0 45 31.5 76t76.5 31q43 0 75 -31t32 -76t-32 -76.5t-75 -31.5q-45 0 -76.5 31.5t-31.5 76.5z M877 1624q0 45 31.5 76t76.5 31t76 -31t31 -76t-31 -76.5t-76 -31.5t-76.5 31.5t-31.5 76.5z" />
<glyph unicode="&#xdd;" horiz-adv-x="1138" d="M137 1366h172l256 -745h2l463 745h178l-579 -887l-68 -479h-160l68 479zM526 1470l183 310h159l-211 -310h-131z" />
<glyph unicode="&#xde;" horiz-adv-x="1083" d="M80 0l192 1366h158l-33 -244h207q182 0 300 -84t118 -258q0 -242 -150.5 -364.5t-422.5 -122.5h-168l-43 -293h-158zM299 430h166q199 0 295 81t96 255q0 217 -270 217h-209z" />
<glyph unicode="&#xdf;" horiz-adv-x="1159" d="M-231 -424l26 125q39 -12 94 -12q139 0 166 194l166 1170q59 414 459 413q137 0 232.5 -70.5t95.5 -199.5q0 -55 -20.5 -104.5t-40 -75t-58.5 -66.5l-25 -24q-49 -51 -65.5 -68.5t-29.5 -43.5t-13 -52q0 -53 80 -127l26 -25q143 -127 144 -278q0 -162 -102.5 -259.5 t-268.5 -97.5q-59 0 -119.5 12.5t-91.5 24.5l-31 15l21 143q96 -61 211 -61q90 0 154.5 53t64.5 139q0 100 -96 188l-29 27q-123 111 -123 232q0 59 29.5 106t105.5 125l21 25q47 49 70.5 87.5t23.5 92.5q0 70 -52.5 109.5t-131.5 39.5q-246 0 -289 -305l-168 -1178 q-41 -293 -303 -292z" />
<glyph unicode="&#xe0;" horiz-adv-x="1107" d="M74 377q0 123 24.5 235.5t77.5 214t150.5 162t226.5 60.5q180 0 270 -115l11 -14h2l14 104h151l-102 -729q-12 -90 -25 -295h-135l15 225h-2q-4 -10 -14.5 -26.5t-43 -59.5t-69.5 -76.5t-97.5 -60.5t-124.5 -27q-329 1 -329 402zM238 453q-20 -154 29.5 -247t166.5 -93 q115 0 219.5 134t126.5 302l35 242q-10 14 -28.5 34.5t-81 54t-130.5 33.5q-139 0 -220 -100t-103 -254zM483 1473h152l96 -310h-123z" />
<glyph unicode="&#xe1;" horiz-adv-x="1107" d="M74 377q0 123 24.5 235.5t77.5 214t150.5 162t226.5 60.5q180 0 270 -115l11 -14h2l14 104h151l-102 -729q-12 -90 -25 -295h-135l15 225h-2q-4 -10 -14.5 -26.5t-43 -59.5t-69.5 -76.5t-97.5 -60.5t-124.5 -27q-329 1 -329 402zM238 453q-20 -154 29.5 -247t166.5 -93 q115 0 219.5 134t126.5 302l35 242q-10 14 -28.5 34.5t-81 54t-130.5 33.5q-139 0 -220 -100t-103 -254zM463 1163l182 310h160l-211 -310h-131z" />
<glyph unicode="&#xe2;" horiz-adv-x="1107" d="M74 377q0 123 24.5 235.5t77.5 214t150.5 162t226.5 60.5q180 0 270 -115l11 -14h2l14 104h151l-102 -729q-12 -90 -25 -295h-135l15 225h-2q-4 -10 -14.5 -26.5t-43 -59.5t-69.5 -76.5t-97.5 -60.5t-124.5 -27q-329 1 -329 402zM238 453q-20 -154 29.5 -247t166.5 -93 q115 0 219.5 134t126.5 302l35 242q-10 14 -28.5 34.5t-81 54t-130.5 33.5q-139 0 -220 -100t-103 -254zM293 1163l285 310h147l199 -310h-138l-141 203l-199 -203h-153z" />
<glyph unicode="&#xe3;" horiz-adv-x="1107" d="M74 377q0 123 24.5 235.5t77.5 214t150.5 162t226.5 60.5q180 0 270 -115l11 -14h2l14 104h151l-102 -729q-12 -90 -25 -295h-135l15 225h-2q-4 -10 -14.5 -26.5t-43 -59.5t-69.5 -76.5t-97.5 -60.5t-124.5 -27q-329 1 -329 402zM238 453q-20 -154 29.5 -247t166.5 -93 q115 0 219.5 134t126.5 302l35 242q-10 14 -28.5 34.5t-81 54t-130.5 33.5q-139 0 -220 -100t-103 -254zM279 1249q0 10 2 26.5t13 54.5t29.5 66.5t59.5 52.5t96 24q57 0 153.5 -50.5t127.5 -50.5q37 0 58.5 24.5t23.5 49.5l2 27h112q0 -10 -1 -26.5t-12 -54.5t-30.5 -67 t-60.5 -52.5t-96.5 -23.5t-151.5 49.5t-129 49.5q-37 0 -58.5 -25t-23.5 -49l-2 -25h-112z" />
<glyph unicode="&#xe4;" horiz-adv-x="1107" d="M74 377q0 123 24.5 235.5t77.5 214t150.5 162t226.5 60.5q180 0 270 -115l11 -14h2l14 104h151l-102 -729q-12 -90 -25 -295h-135l15 225h-2q-4 -10 -14.5 -26.5t-43 -59.5t-69.5 -76.5t-97.5 -60.5t-124.5 -27q-329 1 -329 402zM238 453q-20 -154 29.5 -247t166.5 -93 q115 0 219.5 134t126.5 302l35 242q-10 14 -28.5 34.5t-81 54t-130.5 33.5q-139 0 -220 -100t-103 -254zM293 1317q0 45 31.5 75.5t76.5 30.5q43 0 75 -30.5t32 -75.5t-32 -77t-75 -32q-45 0 -76.5 32t-31.5 77zM754 1317q0 45 31.5 75.5t76.5 30.5t76 -30.5t31 -75.5 t-31 -77t-76 -32t-76.5 32t-31.5 77z" />
<glyph unicode="&#xe5;" horiz-adv-x="1107" d="M74 377q0 123 24.5 235.5t77.5 214t150.5 162t226.5 60.5q180 0 270 -115l11 -14h2l14 104h151l-102 -729q-12 -90 -25 -295h-135l15 225h-2q-4 -10 -14.5 -26.5t-43 -59.5t-69.5 -76.5t-97.5 -60.5t-124.5 -27q-329 1 -329 402zM238 453q-20 -154 29.5 -247t166.5 -93 q115 0 219.5 134t126.5 302l35 242q-10 14 -28.5 34.5t-81 54t-130.5 33.5q-139 0 -220 -100t-103 -254zM406 1354q0 84 60 142t148 58q90 0 149.5 -58t59.5 -142t-59 -141.5t-150 -57.5q-88 0 -148 57.5t-60 141.5zM506 1354q0 -47 31.5 -79t76.5 -32t78 32t33 79 t-31.5 79.5t-79.5 32.5q-45 0 -76.5 -32.5t-31.5 -79.5z" />
<glyph unicode="&#xe6;" horiz-adv-x="1630" d="M37 240q0 176 139 273t356 97q88 0 183 -16l18 121q14 92 -51.5 147.5t-173.5 55.5q-68 0 -142.5 -25t-115.5 -49l-43 -23l2 140q145 88 319 88q225 0 306 -156l16 -43h2q4 8 13 21.5t43 47t74 60.5t104.5 48.5t134.5 21.5q164 0 245.5 -78t81.5 -209q0 -162 -189.5 -251 t-504.5 -89l-2 -12q-16 -139 50.5 -221.5t197.5 -82.5q82 0 162.5 32t121.5 63l39 32l-16 -155q-14 -12 -39 -28.5t-111 -45.5t-180 -29q-240 0 -327 175q-16 33 -21 59h-2q-4 -10 -12 -25.5t-40 -55.5t-71 -70.5t-106.5 -56.5t-145.5 -26q-135 0 -225 65t-90 200zM199 248 q0 -70 48 -107t122 -37q133 0 220 104.5t105 231.5l4 35q-80 14 -161 14q-162 0 -250 -66t-88 -175zM866 545q236 0 383.5 57t147.5 158q0 80 -48.5 124t-134.5 44q-129 0 -224 -101.5t-124 -281.5z" />
<glyph unicode="&#xe7;" horiz-adv-x="847" d="M68 354q0 135 25.5 253t79.5 220.5t153.5 162t232.5 59.5q66 0 124 -12.5t85 -24.5l27 -15l-29 -135q-88 51 -213 51q-115 0 -199 -94t-108 -264l-19 -129q-23 -156 40 -235.5t171 -79.5q63 0 127 22.5t94 44.5l31 23l-14 -150q-10 -8 -29.5 -20.5t-90.5 -34t-153 -21.5 q-168 0 -251.5 101.5t-83.5 277.5zM102 -469l17 104q41 -4 55 -4q119 0 153.5 61.5t34.5 201.5h127q0 -8 1.5 -27t1.5 -25q0 -315 -308 -315q-25 0 -82 4z" />
<glyph unicode="&#xe8;" horiz-adv-x="1005" d="M68 356q0 324 146 508.5t382 184.5q164 0 246 -78t82 -209q0 -162 -190.5 -251t-506.5 -89l-2 -12q-16 -139 50.5 -221.5t199.5 -82.5q168 0 311 119l11 8l-15 -155q-14 -12 -38.5 -28.5t-110.5 -45.5t-180 -29q-385 0 -385 381zM242 545q236 0 383 57t147 158 q0 82 -48 125t-136 43q-129 0 -224 -101.5t-122 -281.5zM461 1473h151l97 -310h-123z" />
<glyph unicode="&#xe9;" horiz-adv-x="1005" d="M68 356q0 324 146 508.5t382 184.5q164 0 246 -78t82 -209q0 -162 -190.5 -251t-506.5 -89l-2 -12q-16 -139 50.5 -221.5t199.5 -82.5q168 0 311 119l11 8l-15 -155q-14 -12 -38.5 -28.5t-110.5 -45.5t-180 -29q-385 0 -385 381zM242 545q236 0 383 57t147 158 q0 82 -48 125t-136 43q-129 0 -224 -101.5t-122 -281.5zM457 1163l182 310h160l-211 -310h-131z" />
<glyph unicode="&#xea;" horiz-adv-x="1005" d="M68 356q0 324 146 508.5t382 184.5q164 0 246 -78t82 -209q0 -162 -190.5 -251t-506.5 -89l-2 -12q-16 -139 50.5 -221.5t199.5 -82.5q168 0 311 119l11 8l-15 -155q-14 -12 -38.5 -28.5t-110.5 -45.5t-180 -29q-385 0 -385 381zM242 545q236 0 383 57t147 158 q0 82 -48 125t-136 43q-129 0 -224 -101.5t-122 -281.5zM252 1163l285 310h147l199 -310h-138l-141 203l-198 -203h-154z" />
<glyph unicode="&#xeb;" horiz-adv-x="1005" d="M68 356q0 324 146 508.5t382 184.5q164 0 246 -78t82 -209q0 -162 -190.5 -251t-506.5 -89l-2 -12q-16 -139 50.5 -221.5t199.5 -82.5q168 0 311 119l11 8l-15 -155q-14 -12 -38.5 -28.5t-110.5 -45.5t-180 -29q-385 0 -385 381zM242 545q236 0 383 57t147 158 q0 82 -48 125t-136 43q-129 0 -224 -101.5t-122 -281.5zM268 1317q0 45 32 75.5t77 30.5q43 0 74.5 -30.5t31.5 -75.5t-31.5 -77t-74.5 -32q-45 0 -77 32t-32 77zM729 1317q0 45 32 75.5t77 30.5t75.5 -30.5t30.5 -75.5t-30.5 -77t-75.5 -32t-77 32t-32 77z" />
<glyph unicode="&#xec;" horiz-adv-x="489" d="M82 0l143 1024h156l-145 -1024h-154zM199 1473h151l96 -310h-122z" />
<glyph unicode="&#xed;" horiz-adv-x="489" d="M82 0l143 1024h156l-145 -1024h-154zM195 1163l182 310h160l-211 -310h-131z" />
<glyph unicode="&#xee;" horiz-adv-x="489" d="M82 0l143 1024h156l-145 -1024h-154zM82 1163l285 310h147l199 -310h-138l-141 203l-198 -203h-154z" />
<glyph unicode="&#xef;" horiz-adv-x="489" d="M82 0l143 1024h156l-145 -1024h-154zM82 1317q0 45 31.5 75.5t76.5 30.5q43 0 75 -30.5t32 -75.5t-32 -77t-75 -32q-45 0 -76.5 32t-31.5 77zM543 1317q0 45 31.5 75.5t76.5 30.5t76 -30.5t31 -75.5t-31 -77t-76 -32t-76.5 32t-31.5 77z" />
<glyph unicode="&#xf0;" horiz-adv-x="1073" d="M84 369q0 233 113.5 391t339.5 158q92 0 177 -44.5t126 -128.5h2q20 217 -11 353l-251 -119l18 131l193 90q-70 135 -226 135q-152 0 -276 -53l12 133q119 51 274 51q248 0 353 -202l200 96l-18 -131l-141 -68q31 -121 30 -268q0 -104 -10 -203.5t-31.5 -207 t-63.5 -195.5t-99.5 -160t-143.5 -112t-192 -40q-178 0 -276.5 107t-98.5 287zM236 360q0 -117 59 -185.5t178 -68.5q104 0 183 72t114 169t35 194q0 113 -73 178t-187 65q-156 0 -232.5 -130t-76.5 -294z" />
<glyph unicode="&#xf1;" horiz-adv-x="1116" d="M72 0l145 1024h143l-28 -223h2q6 10 15 26.5t44 59.5t75 75.5t102.5 59.5t129.5 27q137 0 207 -79t70 -212q0 -39 -6 -82l-94 -676h-156l94 682q14 92 -21.5 160.5t-140.5 68.5q-121 0 -229.5 -142t-134.5 -327l-62 -442h-155zM322 1249q0 10 2 26.5t13 54.5t29.5 66.5 t59.5 52.5t96.5 24t151.5 -50.5t129 -50.5q37 0 58.5 24.5t23.5 49.5l2 27h112q0 -10 -1 -26.5t-12 -54.5t-30.5 -67t-60.5 -52.5t-96 -23.5q-57 0 -153.5 49.5t-127.5 49.5q-37 0 -58.5 -25t-23.5 -49l-2 -25h-112z" />
<glyph unicode="&#xf2;" horiz-adv-x="1069" d="M74 354q0 324 135 509.5t362 185.5q195 0 293.5 -96.5t98.5 -282.5q0 -322 -135.5 -508.5t-366.5 -186.5q-190 0 -288.5 97.5t-98.5 281.5zM233 424q-20 -152 37.5 -235t188.5 -83t216 98.5t107 260.5l21 135q20 152 -38 235t-189.5 83t-215.5 -98.5t-106 -260.5z M463 1473h151l97 -310h-123z" />
<glyph unicode="&#xf3;" horiz-adv-x="1069" d="M74 354q0 324 135 509.5t362 185.5q195 0 293.5 -96.5t98.5 -282.5q0 -322 -135.5 -508.5t-366.5 -186.5q-190 0 -288.5 97.5t-98.5 281.5zM233 424q-20 -152 37.5 -235t188.5 -83t216 98.5t107 260.5l21 135q20 152 -38 235t-189.5 83t-215.5 -98.5t-106 -260.5z M459 1163l182 310h160l-211 -310h-131z" />
<glyph unicode="&#xf4;" horiz-adv-x="1069" d="M74 354q0 324 135 509.5t362 185.5q195 0 293.5 -96.5t98.5 -282.5q0 -322 -135.5 -508.5t-366.5 -186.5q-190 0 -288.5 97.5t-98.5 281.5zM233 424q-20 -152 37.5 -235t188.5 -83t216 98.5t107 260.5l21 135q20 152 -38 235t-189.5 83t-215.5 -98.5t-106 -260.5z M274 1163l285 310h148l198 -310h-137l-141 203l-199 -203h-154z" />
<glyph unicode="&#xf5;" horiz-adv-x="1069" d="M74 354q0 324 135 509.5t362 185.5q195 0 293.5 -96.5t98.5 -282.5q0 -322 -135.5 -508.5t-366.5 -186.5q-190 0 -288.5 97.5t-98.5 281.5zM233 424q-20 -152 37.5 -235t188.5 -83t216 98.5t107 260.5l21 135q20 152 -38 235t-189.5 83t-215.5 -98.5t-106 -260.5z M276 1249q0 10 2.5 26.5t13.5 54.5t29.5 66.5t59.5 52.5t96 24t151.5 -50.5t129.5 -50.5q37 0 58.5 24.5t23.5 49.5l2 27h112q0 -10 -1 -26.5t-12 -54.5t-30.5 -67t-60.5 -52.5t-96 -23.5q-57 0 -153.5 49.5t-127.5 49.5q-37 0 -58.5 -25t-23.5 -49l-2 -25h-113z" />
<glyph unicode="&#xf6;" horiz-adv-x="1069" d="M74 354q0 324 135 509.5t362 185.5q195 0 293.5 -96.5t98.5 -282.5q0 -322 -135.5 -508.5t-366.5 -186.5q-190 0 -288.5 97.5t-98.5 281.5zM233 424q-20 -152 37.5 -235t188.5 -83t216 98.5t107 260.5l21 135q20 152 -38 235t-189.5 83t-215.5 -98.5t-106 -260.5z M291 1317q0 45 31.5 75.5t76.5 30.5q43 0 75 -30.5t32 -75.5t-32 -77t-75 -32q-45 0 -76.5 32t-31.5 77zM752 1317q0 45 31.5 75.5t76.5 30.5t76 -30.5t31 -75.5t-31 -77t-76 -32t-76.5 32t-31.5 77z" />
<glyph unicode="&#xf7;" horiz-adv-x="1247" d="M127 592l18 127h983l-18 -127h-983zM469 223q0 41 28.5 70t67.5 29q41 0 70 -29t29 -70t-29 -69.5t-70 -28.5t-68.5 28.5t-27.5 69.5zM590 1087.5q0 40.5 28.5 69.5t69.5 29t69.5 -29t28.5 -70q0 -39 -28.5 -68.5t-69.5 -29.5t-69.5 29t-28.5 69.5z" />
<glyph unicode="&#xf8;" horiz-adv-x="1069" d="M74 354q0 324 135 509.5t362 185.5q68 0 127 -13l95 213h106l-108 -245q172 -86 172 -334q0 -322 -135.5 -508.5t-366.5 -186.5q-70 0 -125 13l-96 -215h-103l109 247q-172 86 -172 334zM233 424q-29 -195 74 -272l342 761q-43 6 -74 7q-131 0 -216 -99.5t-107 -261.5z M385 111q39 -6 74 -7q133 0 218 99.5t107 261.5l19 135q29 195 -74 272z" />
<glyph unicode="&#xf9;" horiz-adv-x="1105" d="M115 268q0 39 6 80l94 676h156l-95 -682q-12 -94 25 -161.5t135 -67.5q106 0 215 141t133 313l64 457h156l-103 -727q-8 -57 -14 -131t-10 -121l-3 -45h-141l15 229h-3q-6 -10 -15 -27.5t-44 -61.5t-74 -76.5t-99 -60.5t-124 -28q-137 0 -205.5 79t-68.5 214zM506 1473 h151l97 -310h-123z" />
<glyph unicode="&#xfa;" horiz-adv-x="1105" d="M115 268q0 39 6 80l94 676h156l-95 -682q-12 -94 25 -161.5t135 -67.5q106 0 215 141t133 313l64 457h156l-103 -727q-8 -57 -14 -131t-10 -121l-3 -45h-141l15 229h-3q-6 -10 -15 -27.5t-44 -61.5t-74 -76.5t-99 -60.5t-124 -28q-137 0 -205.5 79t-68.5 214zM500 1163 l182 310h160l-211 -310h-131z" />
<glyph unicode="&#xfb;" horiz-adv-x="1105" d="M115 268q0 39 6 80l94 676h156l-95 -682q-12 -94 25 -161.5t135 -67.5q106 0 215 141t133 313l64 457h156l-103 -727q-8 -57 -14 -131t-10 -121l-3 -45h-141l15 229h-3q-6 -10 -15 -27.5t-44 -61.5t-74 -76.5t-99 -60.5t-124 -28q-137 0 -205.5 79t-68.5 214zM297 1163 l285 310h147l199 -310h-137l-142 203l-198 -203h-154z" />
<glyph unicode="&#xfc;" horiz-adv-x="1105" d="M115 268q0 39 6 80l94 676h156l-95 -682q-12 -94 25 -161.5t135 -67.5q106 0 215 141t133 313l64 457h156l-103 -727q-8 -57 -14 -131t-10 -121l-3 -45h-141l15 229h-3q-6 -10 -15 -27.5t-44 -61.5t-74 -76.5t-99 -60.5t-124 -28q-137 0 -205.5 79t-68.5 214zM313 1317 q0 45 32 75.5t77 30.5q43 0 74.5 -30.5t31.5 -75.5t-31.5 -77t-74.5 -32q-45 0 -77 32t-32 77zM774 1317q0 45 32 75.5t77 30.5t75.5 -30.5t30.5 -75.5t-30.5 -77t-75.5 -32t-77 32t-32 77z" />
<glyph unicode="&#xfd;" horiz-adv-x="1046" d="M90 -438q59 92 126 202.5t103 174.5l35 65l-250 1020h158l193 -864h2l432 864h170q-416 -844 -785 -1462h-184zM440 1163l183 310h159l-211 -310h-131z" />
<glyph unicode="&#xfe;" horiz-adv-x="1103" d="M4 -420l262 1864h154l-86 -625h2q4 10 13 25.5t41 54.5t68 69.5t95 55.5t123 25q162 0 241.5 -100.5t79.5 -280.5q0 -117 -25.5 -230.5t-77.5 -221t-150.5 -174.5t-229.5 -67q-178 0 -268 115l-10 14h-3l-73 -524h-156zM252 248q10 -16 28.5 -39t83 -60.5t138.5 -37.5 q131 0 212 101t103 253l19 129q20 152 -34 234.5t-163 82.5q-121 0 -227.5 -141t-130.5 -326z" />
<glyph unicode="&#xff;" horiz-adv-x="1046" d="M90 -438q59 92 126 202.5t103 174.5l35 65l-250 1020h158l193 -864h2l432 864h170q-416 -844 -785 -1462h-184zM252 1317q0 45 31.5 75.5t76.5 30.5q43 0 75 -30.5t32 -75.5t-32 -77t-75 -32q-45 0 -76.5 32t-31.5 77zM713 1317q0 45 31.5 75.5t76.5 30.5t76 -30.5 t31 -75.5t-31 -77t-76 -32t-76.5 32t-31.5 77z" />
<glyph unicode="&#x131;" horiz-adv-x="489" d="M82 0l143 1024h156l-145 -1024h-154z" />
<glyph unicode="&#x141;" horiz-adv-x="948" d="M2 637l18 141l181 86l71 502h158l-59 -424l268 127l-21 -141l-268 -127l-92 -658l545 -2l-21 -141h-702l102 721z" />
<glyph unicode="&#x142;" horiz-adv-x="477" d="M-29 637l21 141l207 99l80 567h155l-69 -490l200 95l-20 -142l-201 -94l-113 -813h-155l104 735z" />
<glyph unicode="&#x152;" horiz-adv-x="1763" d="M82 475q0 442 159.5 679t434.5 237q78 0 141.5 -20.5t99 -50.5t60 -60.5t33.5 -51.5l8 -20h2l27 178h700l-21 -137l-546 -2l-64 -447h502l-19 -139h-501l-72 -502l567 -2l-20 -137h-719l25 166h-2q-4 -8 -13.5 -20.5t-42.5 -45t-70.5 -58.5t-100 -46.5t-132.5 -20.5 q-436 0 -436 500zM258 629q-70 -510 270 -510q338 0 406 479l24 190q31 223 -42.5 340t-231.5 117q-342 0 -410 -497z" />
<glyph unicode="&#x153;" horiz-adv-x="1677" d="M74 354q0 324 134 509.5t361 185.5q80 0 146.5 -22.5t102.5 -54.5t60.5 -63.5t32.5 -54.5l9 -23h2q4 8 13 23.5t43 52.5t74 65.5t109.5 52.5t147.5 24q164 0 245.5 -78t81.5 -209q0 -162 -189.5 -251t-504.5 -89l-2 -12q-16 -139 50.5 -221.5t197.5 -82.5q82 0 163 32 t119 63l41 32l-16 -155q-14 -12 -38.5 -28.5t-110.5 -45.5t-181 -29q-88 0 -154.5 22.5t-101.5 55.5t-56.5 67t-25.5 56l-6 23h-2q-4 -8 -10 -23.5t-35 -54.5t-65.5 -67.5t-102 -53.5t-145.5 -25q-190 0 -288.5 97.5t-98.5 281.5zM233 424q-20 -152 37.5 -235t186.5 -83 q133 0 217 98.5t108 260.5l19 135q23 152 -35.5 235t-190 83t-215.5 -98.5t-106 -260.5zM956 545q236 0 382.5 57t146.5 158q0 82 -47 125t-135 43q-129 0 -224.5 -101.5t-122.5 -281.5z" />
<glyph unicode="&#x160;" horiz-adv-x="1032" d="M31 61l28 150q14 -10 41 -25.5t116 -40t187 -24.5q135 0 230.5 66.5t95.5 187.5q0 84 -61.5 140t-178.5 110l-20 8q-297 135 -297 364q0 188 137 291t344 103q80 0 159 -17.5t118 -34.5l37 -18l-31 -150q-125 74 -301 74q-127 0 -211 -56t-84 -177q0 -82 68.5 -138.5 t193.5 -111.5l23 -10q272 -121 272 -357q0 -199 -146.5 -309.5t-365.5 -110.5q-98 0 -187 21.5t-128 44.5zM356 1780h136l145 -205l197 205h153l-285 -310h-147z" />
<glyph unicode="&#x161;" horiz-adv-x="878" d="M31 45l28 135q102 -78 265 -78q109 0 176 47.5t67 139.5q0 43 -27.5 76.5t-58 50t-84.5 39.5l-51 20q-219 92 -219 279q0 131 102.5 213t280.5 82q154 0 270 -70l-20 -139q-123 82 -260 82q-84 0 -148.5 -35t-64.5 -119q0 -57 39 -93t123 -71l51 -20q229 -98 229 -285 q0 -162 -123 -243t-295 -81q-76 0 -146.5 17.5t-103.5 36.5zM231 1473h136l145 -205l197 205h153l-284 -310h-148z" />
<glyph unicode="&#x178;" horiz-adv-x="1138" d="M137 1366h172l256 -745h2l463 745h178l-579 -887l-68 -479h-160l68 479zM354 1624q0 45 32 76t77 31q43 0 74.5 -31t31.5 -76t-31.5 -76.5t-74.5 -31.5q-45 0 -77 31.5t-32 76.5zM815 1624q0 45 32 76t77 31t75.5 -31t30.5 -76t-30.5 -76.5t-75.5 -31.5t-77 31.5 t-32 76.5z" />
<glyph unicode="&#x17d;" horiz-adv-x="1042" d="M-61 0l862 1227l-613 2l21 137h870l-862 -1227l670 -2l-21 -137h-927zM356 1780h136l145 -205l197 205h153l-285 -310h-147z" />
<glyph unicode="&#x17e;" horiz-adv-x="976" d="M-6 0l676 891l-480 2l19 131h733l-676 -891l539 -2l-19 -131h-792zM293 1473h133l145 -205l199 205h154l-287 -310h-145z" />
<glyph unicode="&#x192;" d="M207 -6l14 125q43 -16 103 -17q135 0 155 187l37 332h-252l27 124h237l37 342q16 143 89 222.5t204 79.5q37 0 68.5 -4.5t44.5 -8.5l14 -4l-14 -127q-41 18 -103 19q-135 0 -155 -189l-35 -330h250l-25 -124h-237l-39 -345q-33 -303 -293 -303q-37 0 -69 5.5t-44 9.5z " />
<glyph unicode="&#x2c6;" horiz-adv-x="743" d="M129 1143l285 309h147l199 -309h-137l-142 203l-198 -203h-154z" />
<glyph unicode="&#x2c7;" horiz-adv-x="743" d="M172 1452h135l146 -205l196 205h154l-285 -309h-147z" />
<glyph unicode="&#x2d8;" horiz-adv-x="743" d="M180 1452h129q0 -195 162 -195q53 0 93 20.5t58.5 49.5t29 56.5t12.5 48.5l2 20h129q0 -12 -2 -33.5t-20.5 -75t-49.5 -94.5t-97.5 -74.5t-154.5 -33.5q-291 0 -291 311z" />
<glyph unicode="&#x2d9;" horiz-adv-x="743" d="M358 1345.5q0 47.5 34 80t81 32.5t80 -32.5t33 -80t-33 -81t-80 -33.5t-81 33.5t-34 81z" />
<glyph unicode="&#x2da;" horiz-adv-x="743" d="M260 1333q0 84 60.5 142.5t148.5 58.5q90 0 149.5 -58.5t59.5 -142.5t-59.5 -141t-149.5 -57q-88 0 -148.5 57t-60.5 141zM360 1333q0 -47 32 -78.5t77 -31.5q47 0 79 31.5t32 78.5t-32 80t-79 33q-45 0 -77 -33t-32 -80z" />
<glyph unicode="&#x2db;" horiz-adv-x="743" d="M70 -285q0 80 41 179h127q-37 -94 -37 -148q0 -115 153 -115q14 0 52 4l-9 -104q-61 -4 -82 -4q-245 0 -245 188z" />
<glyph unicode="&#x2dc;" horiz-adv-x="743" d="M133 1229q0 10 2 26.5t13.5 54.5t30 66.5t59.5 52t96 23.5t151.5 -50t128.5 -50q37 0 58.5 24.5t23.5 48.5l2 27h113q0 -10 -1 -26.5t-12.5 -54.5t-30.5 -66.5t-60 -52t-97 -23.5q-57 0 -153.5 49t-126.5 49q-37 0 -58.5 -24.5t-23.5 -49.5l-2 -24h-113z" />
<glyph unicode="&#x2dd;" horiz-adv-x="743" d="M90 1143l182 309h162l-213 -309h-131zM500 1143l182 309h160l-211 -309h-131z" />
<glyph unicode="&#x2000;" horiz-adv-x="929" />
<glyph unicode="&#x2001;" horiz-adv-x="1861" />
<glyph unicode="&#x2002;" horiz-adv-x="929" />
<glyph unicode="&#x2003;" horiz-adv-x="1861" />
<glyph unicode="&#x2004;" horiz-adv-x="620" />
<glyph unicode="&#x2005;" horiz-adv-x="464" />
<glyph unicode="&#x2006;" horiz-adv-x="309" />
<glyph unicode="&#x2007;" horiz-adv-x="309" />
<glyph unicode="&#x2008;" horiz-adv-x="231" />
<glyph unicode="&#x2009;" horiz-adv-x="370" />
<glyph unicode="&#x200a;" horiz-adv-x="102" />
<glyph unicode="&#x2010;" horiz-adv-x="729" d="M82 508l18 133h533l-19 -133h-532z" />
<glyph unicode="&#x2011;" horiz-adv-x="729" d="M82 508l18 133h533l-19 -133h-532z" />
<glyph unicode="&#x2012;" horiz-adv-x="729" d="M82 508l18 133h533l-19 -133h-532z" />
<glyph unicode="&#x2013;" horiz-adv-x="1136" d="M39 506l18 137h1024l-18 -137h-1024z" />
<glyph unicode="&#x2014;" horiz-adv-x="2160" d="M39 506l18 137h2048l-18 -137h-2048z" />
<glyph unicode="&#x2018;" horiz-adv-x="493" d="M135 883l236 483h127l-193 -483h-170z" />
<glyph unicode="&#x2019;" horiz-adv-x="493" d="M135 883l193 483h170l-236 -483h-127z" />
<glyph unicode="&#x201a;" horiz-adv-x="493" d="M-45 -256l192 483h170l-235 -483h-127z" />
<glyph unicode="&#x201c;" horiz-adv-x="935" d="M135 883l236 483h127l-193 -483h-170zM578 883l235 483h129l-194 -483h-170z" />
<glyph unicode="&#x201d;" horiz-adv-x="935" d="M135 883l193 483h170l-236 -483h-127zM578 883l194 483h170l-235 -483h-129z" />
<glyph unicode="&#x201e;" horiz-adv-x="952" d="M-45 -256l192 483h170l-235 -483h-127zM397 -256l195 483h170l-238 -483h-127z" />
<glyph unicode="&#x2020;" horiz-adv-x="1064" d="M135 891l19 133h356l57 401h154l-55 -401h356l-18 -133h-357l-125 -891h-155l125 891h-357z" />
<glyph unicode="&#x2021;" horiz-adv-x="1064" d="M66 395l18 131h356l54 373h-357l19 131h356l55 395h154l-55 -395h356l-18 -131h-357l-51 -373h356l-18 -131h-356l-56 -395h-155l55 395h-356z" />
<glyph unicode="&#x2022;" horiz-adv-x="854" d="M125 696q0 131 88 218t219 87q133 0 220 -86t87 -219t-86 -218t-219 -85q-131 0 -220 86t-89 217z" />
<glyph unicode="&#x2026;" horiz-adv-x="1667" d="M74 96q0 51 35.5 87t87 36t86 -36t34.5 -87t-34.5 -87t-86 -36t-87 36t-35.5 87zM633 96q0 51 36 87t87 36t87 -36t36 -87t-36 -87t-87 -36t-87 36t-36 87zM1192 96q0 51 36 87t87 36t87 -36t36 -87t-36 -87t-87 -36t-87 36t-36 87z" />
<glyph unicode="&#x202f;" horiz-adv-x="370" />
<glyph unicode="&#x2030;" horiz-adv-x="2304" d="M139 907q0 178 91.5 303t248.5 125q129 0 203 -80.5t74 -212.5q0 -178 -91.5 -303t-248.5 -125q-129 0 -203 81t-74 212zM262 0l930 1311h160l-932 -1311h-158zM276 938q-12 -86 22 -146.5t114 -60.5q86 0 135 60.5t61 148.5l10 72q12 86 -21.5 146.5t-113.5 60.5 q-86 0 -135 -60.5t-61 -148.5zM850 268q0 178 91 304t249 126q129 0 202.5 -80.5t73.5 -211.5q0 -178 -91 -304.5t-249 -126.5q-129 0 -202.5 81t-73.5 212zM987 301q-12 -88 21.5 -148.5t113.5 -60.5q86 0 135.5 61.5t61.5 149.5l10 70q12 86 -21.5 146.5t-113.5 60.5 q-86 0 -135 -60.5t-62 -148.5zM1552 268q0 178 91.5 304t248.5 126q129 0 203 -80.5t74 -211.5q0 -178 -91 -304.5t-249 -126.5q-129 0 -203 81t-74 212zM1690 301q-12 -86 21.5 -147.5t113.5 -61.5q86 0 135 61.5t61 149.5l11 70q12 86 -22 146.5t-114 60.5 q-86 0 -135 -60.5t-61 -148.5z" />
<glyph unicode="&#x2039;" horiz-adv-x="677" d="M88 561l363 463h172l-373 -473l235 -473h-159z" />
<glyph unicode="&#x203a;" horiz-adv-x="677" d="M20 78l375 473l-235 473h157l240 -483l-362 -463h-175z" />
<glyph unicode="&#x2044;" horiz-adv-x="434" d="M-367 -164l1069 1704h156l-1069 -1704h-156z" />
<glyph unicode="&#x205f;" horiz-adv-x="464" />
<glyph unicode="&#x20ac;" d="M86 432l27 125h161q6 143 27 252h-162l25 123h168q61 221 187 339t302 118q74 0 138.5 -14.5t93.5 -28.5l26 -15l-24 -137q-106 55 -240 55q-127 0 -207 -91t-116 -226h452l-26 -123h-453l-35 -252h461l-27 -125h-442q-12 -315 211 -315q68 0 140.5 22.5t111.5 44.5 l37 23l-15 -154q-115 -78 -303 -78q-168 0 -251 119t-79 338h-188z" />
<glyph unicode="&#x2122;" horiz-adv-x="1435" d="M174 1270l14 96h461l-14 -96h-174l-76 -539h-111l76 539h-176zM637 733l127 633h100l137 -313h3l223 313h114l-53 -633h-96l45 490h-2l-252 -361l-154 361h-2l-92 -490h-98z" />
<glyph unicode="&#x2212;" horiz-adv-x="1247" d="M127 592l16 127h985l-18 -127h-983z" />
<glyph unicode="&#xe000;" horiz-adv-x="1025" d="M0 1025h1025v-1025h-1025v1025z" />
<glyph unicode="&#xfb01;" horiz-adv-x="1191" d="M-154 -424l29 125q47 -12 102 -12q150 0 177 194l141 1008h-244l19 133h243l21 150q43 293 313 292q33 0 69 -4t54 -8l21 -6l-27 -125q-49 12 -105 12q-152 0 -176 -194l-16 -117h278l-18 -133h-278l-146 -1041q-43 -293 -313 -292q-33 0 -69 4t-56 8zM784 0l144 1024 h155l-143 -1024h-156zM934 1319q0 45 32.5 78t77.5 33q47 0 80 -33t33 -78t-32.5 -78t-80.5 -33q-45 0 -77.5 33t-32.5 78z" />
<glyph unicode="&#xfb02;" horiz-adv-x="1177" d="M-154 -424l29 125q47 -12 102 -12q150 0 177 194l141 1008h-244l19 133h243l21 150q43 293 313 292q33 0 69 -4t54 -8l21 -6l-27 -125q-49 12 -105 12q-152 0 -176 -194l-16 -117h278l-18 -133h-278l-146 -1041q-43 -293 -313 -292q-33 0 -69 4t-56 8zM776 0l203 1444 h154l-203 -1444h-154z" />
</font>
</defs>
</svg>
