<?xml version="1.0" standalone="no"?>
<!DOCTYPE svg PUBLIC "-//W3C//DTD SVG 1.1//EN" "http://www.w3.org/Graphics/SVG/1.1/DTD/svg11.dtd" >
<svg xmlns="http://www.w3.org/2000/svg">
<metadata>
This is a custom SVG webfont generated by Font Squirrel.
Copyright   : 2002 Joerg Hemker published by FontShop International for the FontFont library
</metadata>
<defs>
<font id="Zwow6Italic" horiz-adv-x="1179" >
<font-face units-per-em="2048" ascent="1638" descent="-410" />
<missing-glyph horiz-adv-x="468" />
<glyph unicode=" "  horiz-adv-x="468" />
<glyph unicode="&#x09;" horiz-adv-x="468" />
<glyph unicode="&#xa0;" horiz-adv-x="468" />
<glyph unicode="!" horiz-adv-x="520" d="M31 131q0 70 46 115t115.5 45t115.5 -45t46 -115t-46 -115t-115.5 -45t-115.5 45t-46 115zM117 492l108 874h277l-135 -874h-250z" />
<glyph unicode="&#x22;" horiz-adv-x="882" d="M121 717l63 649h262l-120 -649h-205zM582 717l63 649h262l-121 -649h-204z" />
<glyph unicode="#" horiz-adv-x="1423" d="M92 319l29 209h235l64 256h-215l31 209h235l78 318h213l-80 -318h260l78 318h213l-80 -318h213l-29 -209h-235l-64 -256h213l-28 -209h-236l-78 -319h-213l80 319h-260l-78 -319h-213l80 319h-213zM567 528h260l64 256h-260z" />
<glyph unicode="$" d="M113 51l39 217q125 -82 305 -82q98 0 159.5 52.5t61.5 142.5q0 66 -37 110t-133 103l-16 10q-113 70 -179.5 155t-68.5 222q-2 170 103.5 278.5t279.5 131.5l22 174h164l-25 -174q59 -6 116 -20.5t83 -27.5l25 -12l-37 -219q-119 68 -270 68q-84 0 -141.5 -42t-57.5 -128 q0 -63 44 -109.5t136 -97.5l16 -10q238 -137 240 -363q2 -178 -93 -294t-259 -152l-25 -185h-162l23 170q-200 8 -313 82z" />
<glyph unicode="%" horiz-adv-x="1601" d="M123 926q0 180 93 297.5t261 117.5q133 0 213 -80.5t80 -213.5q0 -180 -94 -298t-262 -118q-133 0 -212 81t-79 214zM219 0l928 1311h248l-926 -1311h-250zM326 952q-10 -63 14.5 -105t79.5 -42q59 0 94 42t43 107l8 66q10 61 -14.5 103t-77.5 42q-59 0 -94 -42t-45 -105 zM842 264q0 180 94 298t262 118q133 0 212 -80t79 -213q0 -182 -93 -300t-261 -118q-133 0 -213 81t-80 214zM1044 293q-8 -63 16.5 -105.5t78.5 -42.5q59 0 94 42t43 106l10 65q8 63 -15.5 105.5t-78.5 42.5q-59 0 -94 -42t-43 -106z" />
<glyph unicode="&#x26;" horiz-adv-x="1269" d="M45 305q0 80 33 150.5t90 123t94 79t88 55.5q10 6 15 8q-2 2 -13.5 20.5t-16.5 28.5t-17.5 31.5t-18.5 40t-14.5 42t-11.5 49t-3 50.5q0 164 113 261t283 97q143 0 235 -74.5t92 -207.5q0 -68 -23.5 -122t-78.5 -102.5t-96 -77t-121 -75.5l178 -272q125 131 195 254 l104 -209q-78 -123 -178 -222l166 -233h-289l-59 86q-172 -113 -363 -113q-182 0 -282.5 85t-100.5 247zM295 332q0 -70 45 -110t117 -40q104 0 213 78l-203 309q-172 -100 -172 -237zM504 991q0 -57 65 -155q2 2 21.5 12t26 13t24.5 16l28 18q9 6 25.5 18.5t24.5 21.5 t19.5 22.5t17.5 24.5t10 25.5t4 28.5q0 49 -34 81t-83 32q-66 0 -107.5 -45t-41.5 -113z" />
<glyph unicode="'" horiz-adv-x="421" d="M121 717l63 649h262l-120 -649h-205z" />
<glyph unicode="(" horiz-adv-x="874" d="M168 494q0 186 47 361t114.5 292t135 207t115.5 133l47 41h276q-14 -14 -39.5 -41t-93.5 -113t-123 -176t-108.5 -224t-71.5 -263l-10 -82q-18 -154 -7 -290t43.5 -247.5t67.5 -192.5t62 -126l26 -45h-258q-8 10 -23.5 31.5t-54.5 94t-67.5 154.5t-53 214.5t-24.5 271.5z " />
<glyph unicode=")" horiz-adv-x="874" d="M-29 -272q14 14 40 40.5t93.5 112.5t123 176t108.5 224.5t72 263.5l10 82q18 154 7 290t-44 247.5t-67.5 192.5t-61.5 126l-27 45h258q8 -10 23.5 -31.5t54.5 -94.5t67.5 -155t53.5 -214t25 -271q0 -186 -47.5 -361.5t-115 -292t-135 -206.5t-114.5 -131l-47 -43h-277z " />
<glyph unicode="*" horiz-adv-x="978" d="M92 1022l49 149l250 -61l23 256h155l19 -256l252 59l47 -149l-238 -98l133 -222l-127 -92l-166 197l-167 -197l-125 92l133 222z" />
<glyph unicode="+" horiz-adv-x="1257" d="M123 551l31 209h385l57 407h219l-57 -407h385l-29 -209h-387l-57 -410h-219l59 410h-387z" />
<glyph unicode="," horiz-adv-x="501" d="M-125 -256l217 539h273l-273 -539h-217z" />
<glyph unicode="-" horiz-adv-x="720" d="M57 467l31 215h559l-31 -215h-559z" />
<glyph unicode="." horiz-adv-x="526" d="M37 147q0 74 52 126.5t124 52.5q74 0 126 -52.5t52 -126.5q0 -72 -52 -124t-126 -52q-72 0 -124 52t-52 124z" />
<glyph unicode="/" horiz-adv-x="958" d="M-14 -229l821 1702h231l-819 -1702h-233z" />
<glyph unicode="0" d="M76 459q0 145 18.5 275t63.5 253t112.5 212t173 142.5t236.5 53.5q221 0 329.5 -132.5t108.5 -359.5q0 -145 -18.5 -275t-63.5 -253t-112.5 -211t-172 -141.5t-235.5 -53.5q-221 0 -330.5 131.5t-109.5 358.5zM358 553q-25 -172 20.5 -264t156.5 -92q217 0 272 391 l31 223q23 170 -20.5 263t-153.5 93q-115 0 -183.5 -107.5t-91.5 -283.5z" />
<glyph unicode="1" d="M59 0l31 221l334 2l121 867q-143 -61 -336 -123l18 233q111 37 209.5 79t141.5 64l43 23h235l-162 -1143l310 -2l-33 -221h-912z" />
<glyph unicode="2" d="M43 0l33 233q266 201 477 400q229 219 229 366q0 74 -47 122t-143 48q-82 0 -171 -33.5t-138 -66.5l-47 -33l20 242q16 12 47 31.5t129 52.5t201 33q221 0 325.5 -103.5t104.5 -257.5q0 -223 -264 -483q-80 -80 -179.5 -162t-158.5 -123l-60 -43v-2l551 -4l-32 -217h-877 z" />
<glyph unicode="3" d="M70 53l45 228q139 -86 317 -86q115 0 194 52t79 152q0 92 -77 140.5t-202 48.5l-193 -2l31 217h172q150 2 244 59.5t94 155.5q0 68 -57.5 110.5t-153.5 42.5q-78 0 -159.5 -23.5t-124.5 -45.5l-43 -25l20 226q16 10 46 25t126 41t195 26q193 0 313.5 -91.5t120.5 -242.5 q0 -82 -32 -149.5t-78 -105.5t-92 -65.5t-77 -35.5l-33 -11v-4q10 -2 25.5 -7t56.5 -26.5t72 -51.5t56.5 -86t25.5 -126q0 -182 -136 -303t-374 -121q-250 0 -397 82z" />
<glyph unicode="4" d="M27 319l34 250l557 797h426l-118 -827h188l-31 -220h-188l-45 -319h-270l45 319h-598zM283 537q186 2 372 2l95 659h-2l-465 -659v-2z" />
<glyph unicode="5" d="M84 59l43 226q137 -86 315 -86q129 0 208 66.5t79 187.5q0 100 -77 147t-193 47h-277l113 719h792l-30 -219l-531 -2l-43 -287h107q178 0 303 -95t125 -284q0 -231 -154.5 -370.5t-408.5 -139.5q-217 0 -367 88z" />
<glyph unicode="6" d="M98 457q0 152 22.5 286t74 255.5t127 208.5t192.5 138.5t260 51.5q96 0 178 -17.5t117 -36.5l33 -16l-43 -219q-109 59 -268 59q-172 0 -276.5 -121.5t-121.5 -312.5h2q141 113 289 113q178 0 282.5 -106.5t104.5 -274.5q0 -225 -140 -360.5t-374 -135.5 q-231 0 -345 130.5t-114 357.5zM373 401q0 -92 49 -152.5t149 -60.5q104 0 159.5 71t55.5 177q0 80 -45 136.5t-133 56.5q-113 0 -174 -63t-61 -165z" />
<glyph unicode="7" d="M182 0l600 1137l-594 2l31 227h975l-702 -1366h-310z" />
<glyph unicode="8" d="M66 317q0 78 31.5 146.5t82.5 114t97.5 73t91.5 43.5v2q-41 25 -77 57.5t-71 100.5t-35 147q0 174 136.5 284t367.5 110q205 0 312.5 -90.5t107.5 -235.5q0 -76 -29.5 -140.5t-79 -108.5t-89.5 -69.5t-83 -45.5v-3q68 -29 139.5 -110.5t71.5 -200.5q0 -201 -150.5 -311.5 t-375.5 -110.5q-201 0 -324.5 87t-123.5 261zM346 346q0 -82 51.5 -126t141.5 -44q96 0 158.5 57.5t62.5 147.5q0 137 -187 215q-106 -45 -166.5 -101.5t-60.5 -148.5zM471 1008q0 -129 160 -203q201 86 200 229q0 72 -44 112t-125 40q-80 0 -135.5 -47t-55.5 -131z" />
<glyph unicode="9" d="M94 39l43 219q106 -59 266 -59q172 0 276.5 121.5t121.5 312.5h-2q-139 -111 -287 -111q-178 0 -282.5 106.5t-104.5 272.5q0 225 140.5 360.5t373.5 135.5q231 0 344 -130t113 -358q0 -190 -37 -353t-114 -298t-211 -212t-314 -77q-209 0 -326 70zM410 932 q0 -82 45 -138.5t133 -56.5q113 0 174 63.5t61 166.5q0 92 -49 151.5t-151 59.5q-104 0 -158.5 -70t-54.5 -176z" />
<glyph unicode=":" horiz-adv-x="526" d="M37 147q0 74 52 126.5t126 52.5q72 0 124 -52.5t52 -126.5q0 -72 -52 -124t-124 -52q-74 0 -126 52t-52 124zM141 877q0 72 52.5 124t126 52t125 -52.5t51.5 -123.5q0 -74 -51.5 -126.5t-125 -52.5t-126 52.5t-52.5 126.5z" />
<glyph unicode=";" horiz-adv-x="520" d="M-100 -256l217 539h272l-272 -539h-217zM164 877q0 72 52 124t126 52t126 -52.5t52 -123.5q0 -74 -52 -126.5t-126 -52.5t-126 52.5t-52 126.5z" />
<glyph unicode="&#x3c;" horiz-adv-x="1257" d="M96 655l1110 549l-32 -241l-660 -318l569 -313l-30 -223z" />
<glyph unicode="=" horiz-adv-x="1257" d="M94 344l29 207h991l-31 -207h-989zM154 762l28 207h989l-28 -207h-989z" />
<glyph unicode="&#x3e;" horiz-adv-x="1257" d="M61 106l35 240l658 320l-570 311l31 225l956 -549z" />
<glyph unicode="?" horiz-adv-x="911" d="M178 131q0 70 45 115t115 45t116 -45t46 -115t-45 -115t-117 -45q-70 0 -115 45t-45 115zM213 1098l20 237q102 61 277 62q168 0 266 -83t98 -214q0 -102 -53 -182t-153 -164l-21 -19q-131 -109 -133 -243h-250q-4 172 131 307q0 2 5.5 6t11.5 9t8 7q8 12 20 21l23 22 l6 6q6 6 8 7q59 55 86 94t27 90t-38 82t-110 31q-116 0 -229 -76z" />
<glyph unicode="@" horiz-adv-x="1902" d="M98 449q0 406 275.5 673t670.5 267q303 0 516.5 -179.5t213.5 -464.5q0 -82 -16.5 -162.5t-54.5 -157.5t-91 -135.5t-133 -94t-176 -35.5q-178 0 -226 151l-10 49h-2q-4 -8 -11 -21t-33 -48t-56.5 -61.5t-82 -48t-106.5 -21.5q-123 0 -186.5 79.5t-63.5 204.5 q0 129 45 251t145.5 210t233.5 88q57 0 103.5 -21.5t64.5 -41.5l19 -23h2l14 60h182l-98 -408q-55 -221 94 -221q78 0 132.5 67.5t75 148.5t20.5 157q0 217 -144.5 348t-378.5 131q-303 0 -506.5 -211t-203.5 -518q0 -242 152.5 -381t381.5 -139q123 0 244 26.5t180 52.5 l59 27l-14 -215q-23 -10 -64.5 -25.5t-165.5 -42t-245 -26.5q-324 0 -540 187.5t-216 523.5zM733 467q0 -127 103 -127q70 0 131 82t92 201l35 143q-47 55 -138 55q-96 0 -159.5 -116.5t-63.5 -237.5z" />
<glyph unicode="A" horiz-adv-x="1349" d="M-33 0l635 1366h342l242 -1366h-283l-47 313h-471l-137 -313h-281zM475 532h354l-92 596h-2z" />
<glyph unicode="B" horiz-adv-x="1200" d="M61 0l193 1366h438q438 0 438 -293q0 -211 -200 -319l-70 -29v-2q8 -2 23.5 -7t53.5 -26.5t66.5 -49.5t52 -80t23.5 -114q0 -225 -157.5 -335.5t-401.5 -110.5h-459zM362 213h162q279 0 279 227q0 166 -221 166h-166zM446 815h158q106 0 175 54.5t69 152.5 q0 135 -191 135h-163z" />
<glyph unicode="C" horiz-adv-x="1024" d="M63 489q0 432 172.5 670t509.5 238q186 0 312 -74l-45 -221q-123 72 -271 72q-319 0 -379 -461l-12 -92q-10 -80 -10 -144q0 -132 43 -193q63 -91 209 -91q72 0 154.5 32.5t130.5 65.5l47 35l-21 -246q-14 -12 -43 -30.5t-126 -49.5t-206 -31q-465 0 -465 520z" />
<glyph unicode="D" horiz-adv-x="1296" d="M61 0l193 1366h469q504 0 504 -489q0 -418 -185.5 -647.5t-539.5 -229.5h-441zM362 219h130q184 0 294.5 107.5t139.5 304.5l20 151q8 56 8 103q0 118 -52 178q-73 84 -236 84h-172z" />
<glyph unicode="E" horiz-adv-x="1046" d="M61 0l193 1366h795l-31 -221l-524 -2l-48 -326h482l-31 -219h-481l-51 -375l524 -2l-31 -221h-797z" />
<glyph unicode="F" horiz-adv-x="991" d="M61 0l193 1366h758l-31 -221l-487 -2l-56 -387h453l-31 -224h-452l-76 -532h-271z" />
<glyph unicode="G" horiz-adv-x="1243" d="M84 506q0 420 177 655.5t521 235.5q106 0 202.5 -22.5t139.5 -45.5l43 -22l-43 -224q-172 90 -336 91q-180 0 -277 -117t-128 -344l-10 -92q-10 -79 -11 -143q0 -123 39 -187q59 -98 201 -98q57 0 106.5 10t69.5 20l23 10l43 310h-201l29 213h458l-96 -672 q-20 -12 -58 -31.5t-157 -51.5t-237 -32q-254 0 -376 132.5t-122 404.5z" />
<glyph unicode="H" horiz-adv-x="1347" d="M61 0l193 1366h270l-75 -541h505l76 541h270l-192 -1366h-270l84 590h-506l-84 -590h-271z" />
<glyph unicode="I" horiz-adv-x="573" d="M61 0l193 1366h272l-192 -1366h-273z" />
<glyph unicode="J" horiz-adv-x="727" d="M-70 2l39 215q61 -27 129 -27q84 0 127 50.5t58 156.5l135 969h272l-139 -985q-29 -207 -123 -309.5t-281 -102.5q-57 0 -111 8.5t-81 16.5z" />
<glyph unicode="K" horiz-adv-x="1218" d="M61 0l193 1366h270l-82 -582h2l490 582h330l-594 -676q203 -311 463 -690h-336q-72 106 -166 257t-152 247l-59 98h-2l-86 -602h-271z" />
<glyph unicode="L" horiz-adv-x="985" d="M61 0l193 1366h270l-162 -1145l510 -2l-30 -219h-781z" />
<glyph unicode="M" horiz-adv-x="1648" d="M41 0l281 1366h264l243 -641h2l418 641h285l-102 -1366h-258l90 975h-2l-496 -754l-283 754h-2l-182 -975h-258z" />
<glyph unicode="N" horiz-adv-x="1353" d="M61 0l193 1366h272l402 -950h2l129 950h250l-193 -1366h-272l-402 950h-2l-129 -950h-250z" />
<glyph unicode="O" horiz-adv-x="1271" d="M63 485q0 438 173.5 675t488.5 237q500 0 500 -516q0 -440 -174 -676t-490 -236q-498 0 -498 516zM352 621q-10 -75 -10 -137q0 -118 37 -186q55 -103 196 -103q285 0 347 458l12 90q10 74 10 136q0 292 -233 292q-285 0 -346 -458z" />
<glyph unicode="P" horiz-adv-x="1153" d="M61 0l193 1366h422q213 0 341 -90t128 -281q0 -250 -159 -376.5t-445 -126.5h-140l-69 -492h-271zM432 709h127q307 0 307 260q0 178 -223 178h-149z" />
<glyph unicode="Q" horiz-adv-x="1271" d="M63 485q0 438 173.5 675t488.5 237q500 0 500 -516q0 -397 -143.5 -630t-405.5 -274q-25 -70 -25 -116q0 -102 127 -103q33 0 51 2l-16 -166q-82 -10 -133 -10q-266 0 -266 199q0 84 45 192q-396 51 -396 510zM348 614q-10 -76 -10 -137q0 -119 37 -188q55 -104 200 -105 q287 0 349 463l14 96q11 77 11 141q0 116 -37 184q-56 105 -201 106q-287 0 -349 -463z" />
<glyph unicode="R" horiz-adv-x="1220" d="M61 0l193 1366h438q209 0 338 -81t129 -263q0 -92 -34.5 -169t-85 -121t-101.5 -73.5t-86 -40.5l-35 -10l-2 -2q8 -2 21.5 -7t45 -36t48.5 -78l180 -485h-313l-131 406q-41 121 -125 120h-135l-74 -526h-271zM436 741h150q129 0 211 63.5t82 180.5q0 164 -209 164h-176z " />
<glyph unicode="S" horiz-adv-x="1060" d="M8 66l45 229q14 -12 42 -28.5t122 -45t201 -28.5q111 0 179.5 51t68.5 137q0 63 -48.5 108.5t-160.5 96.5l-21 10q-291 135 -291 379q0 193 139.5 307.5t374.5 114.5q203 -2 357 -80l-45 -227q-14 10 -41 23t-112 37t-173 24q-98 0 -158.5 -42t-60.5 -122 q0 -61 54.5 -105.5t170.5 -99.5l21 -10q276 -127 276 -359q0 -217 -148.5 -342t-398.5 -125q-229 0 -387 92z" />
<glyph unicode="T" horiz-adv-x="1042" d="M100 1137l33 229h985l-33 -229h-356l-160 -1137h-270l160 1137h-359z" />
<glyph unicode="U" horiz-adv-x="1320" d="M123 381q0 51 10 127l121 858h270l-125 -891q-5 -36 -5 -68q0 -88 38 -141q51 -72 170 -71q236 0 279 301l123 870h270l-121 -862q-39 -274 -178 -404.5t-393 -130.5q-459 0 -459 412z" />
<glyph unicode="V" horiz-adv-x="1247" d="M139 1366h279l147 -1128h2l467 1128h283l-615 -1366h-342z" />
<glyph unicode="W" horiz-adv-x="1888" d="M147 1366h259l71 -1108h4l385 1108h357l61 -1108h2l391 1108h273l-531 -1366h-332l-77 1108h-2l-392 -1108h-329z" />
<glyph unicode="X" horiz-adv-x="1271" d="M-57 0l536 709l-311 657h301l205 -451h2l323 451h310l-496 -659l338 -707h-307l-223 498h-3l-360 -498h-315z" />
<glyph unicode="Y" horiz-adv-x="1200" d="M119 1366h284l203 -651h2l391 651h289l-575 -897l-66 -469h-272l65 469z" />
<glyph unicode="Z" horiz-adv-x="1079" d="M-80 0l762 1143l-526 2l32 221h947l-762 -1143l579 -2l-30 -221h-1002z" />
<glyph unicode="[" horiz-adv-x="894" d="M137 -272l254 1800h447l-31 -228h-176l-191 -1345h176l-30 -227h-449z" />
<glyph unicode="\" horiz-adv-x="999" d="M199 1473h231l342 -1702h-231z" />
<glyph unicode="]" horiz-adv-x="894" d="M55 -272l33 227h176l191 1345h-179l33 228h447l-252 -1800h-449z" />
<glyph unicode="^" horiz-adv-x="1257" d="M43 309l692 1032l402 -1032h-224l-231 613l-399 -613h-240z" />
<glyph unicode="_" horiz-adv-x="1114" d="M-131 -307l29 207h1114l-29 -207h-1114z" />
<glyph unicode="`" horiz-adv-x="782" d="M303 1456h264l97 -309h-232z" />
<glyph unicode="a" horiz-adv-x="1157" d="M55 367q0 295 126 490.5t360 195.5q84 0 149.5 -29t87.5 -57l25 -27h2l12 84h256l-102 -729l-33 -295h-233l10 178h-2q-4 -8 -13.5 -22.5t-41 -50t-67.5 -62.5t-93.5 -49.5t-120.5 -22.5q-158 0 -240 100.5t-82 295.5zM330 438q-5 -36 -5 -67q0 -68 24 -114 q36 -67 120 -67q90 0 170 103.5t98 234.5l33 228l-22 22q-14 14 -61.5 37t-98.5 23q-98 0 -160.5 -78t-79.5 -197z" />
<glyph unicode="b" horiz-adv-x="1169" d="M61 0l203 1444h266l-79 -563h2l12 18q8 12 37.5 42t63.5 52.5t88.5 41t111.5 18.5q160 0 239.5 -100.5t79.5 -282.5q0 -133 -28.5 -254t-85 -222.5t-153.5 -162t-224 -60.5q-176 0 -270 117l-11 12h-2l-16 -100h-234zM367 281q6 -10 20 -25.5t62.5 -42.5t101.5 -27 q102 0 163.5 78t78.5 197l20 137q5 33 5 62q0 69 -27 112q-39 61 -123 62q-94 0 -174 -106.5t-99 -246.5z" />
<glyph unicode="c" horiz-adv-x="868" d="M49 358q0 322 139.5 508.5t393.5 186.5q72 0 135 -12.5t90 -24.5l29 -15l-41 -208q-80 45 -199 45q-100 0 -170 -77t-90 -214l-14 -111q-5 -36 -5 -66q0 -81 35 -124q49 -59 137 -60q123 0 254 93l-20 -224q-12 -10 -34.5 -23.5t-103.5 -37t-171 -23.5 q-190 0 -277.5 104.5t-87.5 282.5z" />
<glyph unicode="d" horiz-adv-x="1167" d="M55 356q0 186 50.5 340t165 255.5t274.5 101.5q82 0 145.5 -27t87.5 -53l23 -27h2l69 498h265l-160 -1147l-35 -297h-227l12 184h-2q-4 -8 -14.5 -22.5t-43 -51t-69.5 -65.5t-97.5 -51.5t-125.5 -22.5q-160 0 -240 100.5t-80 284.5zM328 426q-5 -33 -5 -62q0 -69 27 -112 q39 -61 123 -62q92 0 173 106.5t99 246.5l29 200q-6 10 -20.5 25.5t-62.5 42.5t-101 27q-102 0 -163.5 -78t-80.5 -197z" />
<glyph unicode="e" horiz-adv-x="1042" d="M49 373q0 330 158 505t401 175q182 0 276.5 -83t94.5 -222q0 -90 -58.5 -160t-156.5 -111t-213 -60.5t-242 -19.5v-8q-1 -12 -1 -23q0 -75 47 -125q54 -58 163 -59q82 0 167 31t130 61l43 31l-20 -227q-16 -12 -45 -29.5t-125.5 -47.5t-198.5 -30q-201 0 -310.5 101.5 t-109.5 300.5zM326 575q178 0 291.5 46.5t113.5 126.5q0 125 -137 124q-98 0 -174 -79t-94 -218z" />
<glyph unicode="f" horiz-adv-x="755" d="M-147 -424l43 203q37 -12 92 -12q119 0 139 147l125 897h-219l28 213h222l18 129q23 156 118 238t253 82q41 0 85 -6.5t66 -12.5l23 -6l-37 -203q-47 12 -102 12q-125 0 -148 -147l-10 -86h250l-29 -213h-252l-133 -940q-20 -156 -114.5 -238t-250.5 -82z" />
<glyph unicode="g" horiz-adv-x="1161" d="M27 -358l43 217q141 -92 315 -92q254 0 293 284l14 109h-2q-4 -6 -12 -17.5t-38 -39t-63.5 -48t-88 -38t-111.5 -17.5q-162 0 -241 100.5t-79 282.5q0 276 125 473t365 197q172 0 266 -111l8 -10h2l13 92h243l-131 -926q-23 -164 -75 -275.5t-129.5 -168.5t-159.5 -80 t-189 -23q-102 0 -194 23t-133 45zM330 444q-5 -33 -5 -61q0 -68 27 -108q39 -56 123 -56q92 0 171 101.5t102 240.5l26 182q-6 10 -20.5 25.5t-61.5 42.5t-102 27q-100 0 -162.5 -73t-79.5 -185z" />
<glyph unicode="h" horiz-adv-x="1185" d="M49 0l203 1444h266l-82 -586h2q4 8 13.5 21.5t42 46t69.5 58.5t96.5 47.5t122.5 21.5q137 0 210 -79t73 -216q0 -41 -6 -80l-94 -678h-267l93 649q2 17 2 34q0 49 -19 90q-25 54 -106 54q-98 0 -183.5 -112.5t-103.5 -237.5l-66 -477h-266z" />
<glyph unicode="i" horiz-adv-x="550" d="M57 0l144 1024h266l-143 -1024h-267zM203 1305q0 68 48 115.5t116 47.5q70 0 117.5 -48t47.5 -115q0 -70 -48 -118t-117 -48q-68 0 -116 48t-48 118z" />
<glyph unicode="j" horiz-adv-x="571" d="M-199 -424l43 203q33 -12 86 -12q115 0 138 147l153 1110h266l-161 -1153q-20 -156 -114.5 -238t-246.5 -82q-43 0 -84 6.5t-61 12.5zM223 1305q0 68 48 115.5t116 47.5q70 0 118 -48t48 -115q0 -70 -48 -118t-118 -48q-68 0 -116 48t-48 118z" />
<glyph unicode="k" horiz-adv-x="1081" d="M49 0l203 1444h264l-119 -840h2l371 420h317l-444 -483q168 -260 367 -541h-305q-59 82 -139.5 211t-129.5 219l-49 88h-2l-72 -518h-264z" />
<glyph unicode="l" horiz-adv-x="550" d="M57 0l203 1444h266l-202 -1444h-267z" />
<glyph unicode="m" horiz-adv-x="1757" d="M51 0l146 1024h241l-24 -182h2q4 8 13 22.5t42 51t70 64.5t97 50.5t126 22.5q211 0 244 -234l15 26q9 15 44 55t74 70.5t102.5 56.5t128.5 26q131 0 196.5 -76t65.5 -211q0 -41 -6 -88l-94 -678h-266l92 649q3 28 3 51q0 127 -103 127q-90 0 -169 -104.5t-98 -235.5 l-67 -487h-267l93 649q3 27 3 51q0 128 -106 127q-90 0 -166.5 -103t-95.5 -241l-70 -483h-266z" />
<glyph unicode="n" horiz-adv-x="1189" d="M53 0l146 1024h241l-24 -184h2q4 8 14 22.5t45 51t74 65.5t103.5 51.5t131.5 22.5q137 0 210 -79t73 -216q0 -41 -6 -80l-94 -678h-267l93 649q2 17 2 34q0 49 -19 90q-25 54 -106 54q-100 0 -183 -112.5t-104 -247.5l-66 -467h-266z" />
<glyph unicode="o" horiz-adv-x="1099" d="M57 362q0 328 142.5 509.5t394.5 181.5q203 0 310.5 -97.5t107.5 -293.5q0 -326 -142.5 -508.5t-396.5 -182.5q-201 0 -308.5 97t-107.5 294zM326 424q-5 -35 -5 -66q0 -74 28 -120q40 -66 136.5 -66t156.5 81t81 212l20 135q5 35 5 66q0 74 -28 120q-40 66 -138 66 q-96 0 -155.5 -80t-80.5 -211z" />
<glyph unicode="p" horiz-adv-x="1157" d="M-12 -420l200 1444h238l-23 -172h3q4 8 13 21.5t42 48t69.5 61.5t96 48.5t123.5 21.5q160 0 239.5 -100.5t79.5 -284.5q0 -186 -50 -340t-165 -255.5t-274 -101.5q-82 0 -145.5 27t-86.5 53l-24 27h-2l-70 -498h-264zM350 281q6 -10 20.5 -25.5t62.5 -42.5t102 -27 q102 0 163.5 78t77.5 197l21 137q5 33 5 62q0 69 -28 112q-39 61 -123 62q-94 0 -174 -106.5t-98 -246.5z" />
<glyph unicode="q" horiz-adv-x="1163" d="M55 354q0 133 28 254t84 222.5t153.5 162t224.5 60.5q172 0 266 -111l8 -10h2l13 92h243l-200 -1444h-267l78 563h-2l-12 -18q-8 -12 -38 -42t-62.5 -52.5t-87 -41t-111.5 -18.5q-160 0 -240 100.5t-80 282.5zM328 426q-5 -33 -5 -62q0 -69 27 -112q39 -61 123 -62 q92 0 173 108t99 247l29 198q-6 10 -20.5 25.5t-62.5 42.5t-103 27q-100 0 -163 -78t-79 -197z" />
<glyph unicode="r" horiz-adv-x="774" d="M47 0l146 1024h229l-23 -184h2q4 8 12.5 22.5t39 51t66.5 65.5t93.5 51.5t120.5 22.5l58 -6l-48 -242q-14 6 -59 6q-104 0 -193.5 -93t-111.5 -247l-66 -471h-266z" />
<glyph unicode="s" horiz-adv-x="917" d="M12 43l43 207q119 -82 277 -82q78 0 131 29.5t53 93.5q0 43 -36 69.5t-107 57.5l-35 14q-233 92 -234 291q0 158 117 244t301 86q86 0 166 -18.5t117 -35.5l37 -18l-39 -209q-137 84 -275 84q-57 0 -104 -22.5t-47 -75.5q0 -41 30.5 -67.5t98.5 -55.5l35 -14 q115 -45 182.5 -112t67.5 -181q0 -178 -130.5 -267.5t-324.5 -89.5q-88 0 -169 18.5t-118 35.5z" />
<glyph unicode="t" horiz-adv-x="813" d="M33 811l30 213h220l36 256l269 31l-39 -287h252l-31 -213h-252l-74 -514q-2 -15 -2 -29q0 -41 20 -60q26 -26 85 -26q29 0 65.5 10.5t59.5 20.5l24 10l-16 -205q-106 -47 -244 -47q-264 0 -264 242q0 36 6 78l74 520h-219z" />
<glyph unicode="u" horiz-adv-x="1173" d="M96 266q0 37 6 78l95 680h266l-90 -649q-3 -20 -3 -39q0 -50 20 -88q28 -51 102 -51q90 0 171.5 110.5t100.5 243.5l65 473h267l-103 -727l-35 -297h-227l10 199h-2q-4 -10 -13 -25.5t-41 -54.5t-69.5 -70t-102 -55.5t-134.5 -24.5q-137 0 -210 80t-73 217z" />
<glyph unicode="v" horiz-adv-x="1075" d="M94 1024h266l117 -813h2l346 813h267l-482 -1024h-321z" />
<glyph unicode="w" horiz-adv-x="1570" d="M94 1024h244l57 -774h2l287 774h311l68 -774h2l276 774h246l-399 -1024h-305l-76 774h-2l-295 -774h-303z" />
<glyph unicode="x" horiz-adv-x="1054" d="M-72 0l414 532l-244 492h279l155 -336h3l235 336h295l-383 -494l264 -530h-278l-174 373h-2l-265 -373h-299z" />
<glyph unicode="y" horiz-adv-x="1103" d="M57 -428q70 111 136.5 221.5t97.5 165.5l33 55l-238 1010h264l146 -770h2l358 770h279q-43 -90 -118 -242.5t-278.5 -538.5t-376.5 -671h-305z" />
<glyph unicode="z" horiz-adv-x="1001" d="M-31 0l580 811l-393 2l28 211h803l-577 -811l452 -2l-31 -211h-862z" />
<glyph unicode="{" horiz-adv-x="886" d="M106 528l27 199q8 0 19.5 1t44 12.5t58.5 31t49.5 62.5t29.5 100l24 221q43 373 437 373h59l-31 -223h-14q-63 0 -118.5 -45.5t-67.5 -151.5l-25 -217q-8 -70 -33.5 -122t-57.5 -77.5t-62.5 -41t-51.5 -19.5l-20 -2v-2q4 0 10 -2t26.5 -8.5t36 -19.5t37 -34.5t29.5 -53.5 t15.5 -79t-5.5 -106l-37 -218q-8 -49 3.5 -82.5t37 -48t47 -19.5t45.5 -5h15l-33 -223h-59q-184 0 -272.5 97t-47.5 339l39 221q10 61 -28.5 97t-81.5 42z" />
<glyph unicode="|" horiz-adv-x="667" d="M76 -420l262 1864h221l-262 -1864h-221z" />
<glyph unicode="}" horiz-adv-x="886" d="M35 -272l31 223h14q29 0 57.5 7t63.5 41t45 89q6 4 13 42t13.5 88t6.5 52q2 6 7 41t10 66t7 37q37 162 178 204l35 9v2q-4 0 -10 2t-26.5 8t-36 19.5t-37 35t-30.5 53t-16.5 78.5t7.5 107l34 217q8 49 -3 83t-36.5 48t-47 19.5t-44.5 5.5h-14l31 223h59 q184 0 273.5 -97.5t48.5 -338.5l-39 -222q-10 -61 27.5 -97t80.5 -40l45 -6l-28 -199q-8 0 -19.5 -1t-44.5 -12t-58.5 -30.5t-49 -62.5t-29.5 -100l-25 -222q-39 -373 -434 -372h-59z" />
<glyph unicode="~" horiz-adv-x="1257" d="M131 510l19 207q14 10 37.5 25.5t97 41t147.5 25.5q88 0 223.5 -50t206.5 -50q133 0 271 92l-17 -209q-125 -90 -285 -90q-84 0 -220 50t-210 50q-133 0 -270 -92z" />
<glyph unicode="&#xa1;" horiz-adv-x="522" d="M35 0l137 874h250l-111 -874h-276zM184 1235q0 70 45 115t117 45q70 0 116 -45t46 -115t-46 -115t-116 -45t-116 45t-46 115z" />
<glyph unicode="&#xa2;" d="M197 530q0 289 111.5 472.5t336.5 214.5l21 149h161l-22 -145q51 -4 97 -15.5t67 -21.5l20 -8l-41 -203q-74 43 -194 43q-119 0 -192 -77t-93 -218l-16 -113q-18 -135 36 -196.5t156 -61.5q59 0 119.5 21.5t91.5 42.5l31 22l-19 -217q-74 -57 -213 -72l-20 -147h-160 l21 147q-299 39 -299 383z" />
<glyph unicode="&#xa3;" d="M104 0l35 236q8 2 23.5 8t55.5 28.5t70.5 52t58.5 84t32 117.5l6 113h-190l36 172h164l6 154q8 219 129 324.5t306 105.5q143 0 225 -47l-35 -203q-72 37 -176 37q-180 0 -191 -213l-8 -158h338l-37 -172h-311l-4 -102q-4 -72 -26.5 -131.5t-53.5 -92t-59.5 -56.5 t-48.5 -32l-21 -6v-2h477l-28 -217h-773z" />
<glyph unicode="&#xa4;" horiz-adv-x="1269" d="M104 303l154 156q-63 106 -63 223q0 119 63 225l-154 156l152 151l154 -155q102 63 225 63t225 -63l154 155l153 -151l-155 -156q63 -106 63 -225q0 -117 -63 -223l155 -156l-153 -151l-154 155q-104 -66 -225 -65.5t-225 65.5l-154 -155zM397 682q0 -98 70 -168t168 -70 t167.5 70t69.5 168q0 100 -69.5 170t-167.5 70t-168 -70t-70 -170z" />
<glyph unicode="&#xa5;" d="M72 229l34 170h322l21 152h-332l37 170h243l-188 645h256l143 -575h2l305 575h261l-367 -645h254l-35 -170h-319l-23 -152h332l-37 -170h-317l-33 -229h-260l32 229h-331z" />
<glyph unicode="&#xa6;" horiz-adv-x="667" d="M76 -420l88 625h221l-88 -625h-221zM250 817l88 627h221l-88 -627h-221z" />
<glyph unicode="&#xa7;" horiz-adv-x="1017" d="M57 -270l39 213q104 -61 266 -62q72 0 123.5 38t51.5 110q0 96 -131 153l-68 31q-227 98 -227 328q0 66 23.5 123t52 90.5t66.5 62.5t54.5 37t28.5 12l2 2h-2q-96 96 -96 236q0 168 121.5 260t310.5 92q74 0 143.5 -12t102.5 -25l30 -12l-41 -213q-94 53 -229 53 q-74 0 -122 -31.5t-48 -95.5q0 -53 32.5 -88t104.5 -67l49 -21q113 -51 176.5 -125t63.5 -203q0 -72 -23.5 -132t-57.5 -97t-66.5 -62.5t-57.5 -35.5l-22 -10v-3q10 -8 27.5 -23t45 -75.5t27.5 -134.5q0 -166 -126 -269.5t-321 -103.5q-86 0 -161.5 15.5t-108.5 29.5z M354 584q0 -59 33 -96t100 -66l70 -29q6 2 14.5 6t32 19.5t41 33t31.5 49t14 68.5q0 100 -125 154l-73 31l-16 -5q-9 -3 -32.5 -17.5t-42 -32t-33 -48t-14.5 -67.5z" />
<glyph unicode="&#xa8;" horiz-adv-x="782" d="M96 1294q0 63 44 107.5t107.5 44.5t107.5 -44t44 -108q0 -61 -44 -105t-107.5 -44t-107.5 44t-44 105zM567 1294q0 63 44 107.5t107.5 44.5t107.5 -44t44 -108q0 -61 -44 -105t-107.5 -44t-107.5 44t-44 105z" />
<glyph unicode="&#xa9;" horiz-adv-x="1619" d="M88 686.5q0 319.5 210 523t521 203.5t521 -204.5t210 -526.5q0 -317 -211 -522t-520 -205t-520 206t-211 525.5zM268 686q0 -246 159 -404.5t394.5 -158.5t394 158.5t158.5 404.5q0 244 -159.5 402.5t-393.5 158.5q-236 0 -394.5 -158.5t-158.5 -402.5zM537 684 q0 162 74.5 258t234.5 96q45 0 88 -9t63 -19l21 -11l-10 -159q-68 37 -138 37q-139 0 -139 -152v-84q0 -150 137 -149q31 0 68 11t57 23l21 13l10 -158q-66 -51 -199 -51q-288 0 -288 354z" />
<glyph unicode="&#xaa;" horiz-adv-x="808" d="M-16 0l24 166h649l-22 -166h-651zM66 684q0 193 88 324t258 131q55 0 97 -16.5t56 -32.5l13 -19l6 49h209l-72 -485l-25 -203h-188l6 105h-2q-2 -4 -7 -13.5t-24.5 -30t-41 -37t-59.5 -29.5t-79 -13q-117 0 -176 70.5t-59 199.5zM293 723q-8 -68 13.5 -102.5t62.5 -34.5 q57 0 100 63.5t57 159.5l17 123q-37 41 -97 41q-121 0 -145 -191z" />
<glyph unicode="&#xab;" horiz-adv-x="1234" d="M70 555l340 469h272l-346 -473l211 -473h-266zM594 555l342 469h270l-346 -473l211 -473h-264z" />
<glyph unicode="&#xac;" horiz-adv-x="1257" d="M147 719l29 205h989l-80 -572h-219l52 367h-771z" />
<glyph unicode="&#xad;" horiz-adv-x="720" d="M57 467l31 215h559l-31 -215h-559z" />
<glyph unicode="&#xae;" horiz-adv-x="1290" d="M90 838q0 252 168 413.5t416 161.5t417 -163t169 -416q0 -252 -169 -414t-417 -162t-416 163t-168 417zM244 838q0 -190 125 -313.5t307 -123.5q184 0 308 123t124 314q0 188 -124 310t-308 122t-308 -122t-124 -310zM500 582v508h196q184 0 185 -152q0 -86 -99 -119v-2 q35 -12 47 -53l54 -182h-140l-41 155q-10 33 -38 33h-39v-188h-125zM625 868h45q78 0 78 62q0 57 -70 57h-53v-119z" />
<glyph unicode="&#xaf;" horiz-adv-x="782" d="M111 1237l30 219h731l-30 -219h-731z" />
<glyph unicode="&#xb0;" horiz-adv-x="860" d="M127 1038q0 150 104.5 254.5t253.5 104.5q147 0 252 -104.5t105 -254.5q0 -147 -104.5 -251.5t-252.5 -104.5q-150 0 -254 104.5t-104 251.5zM319 1038q0 -70 48.5 -119t118 -49t117.5 49.5t48 118.5q0 72 -48 121t-117.5 49t-118 -49t-48.5 -121z" />
<glyph unicode="&#xb1;" horiz-adv-x="1257" d="M37 -57l31 207h989l-29 -207h-991zM123 551l31 209h385l49 348h219l-49 -348h385l-29 -209h-387l-49 -348h-217l49 348h-387z" />
<glyph unicode="&#xb2;" horiz-adv-x="737" d="M37 432l24 191q174 127 306 247q119 113 118 191q0 90 -100 90q-51 0 -108.5 -20.5t-88.5 -40.5l-32 -23l16 190q94 74 254 74q154 0 222.5 -67.5t68.5 -165.5q0 -145 -154 -295q-45 -45 -104.5 -92t-93.5 -72l-37 -27l323 -2l-24 -178h-590z" />
<glyph unicode="&#xb3;" horiz-adv-x="757" d="M55 473l35 176q109 -59 219 -59q164 0 164 106q0 53 -44 81t-124 26l-147 -2l24 162l129 2q96 0 148.5 30.5t52.5 85.5q0 76 -131 76q-47 0 -103.5 -15.5t-89.5 -29.5l-30 -14l16 176q106 59 252 59q143 0 225 -58t82 -159q0 -53 -20.5 -96t-49 -67.5t-57 -41 t-49.5 -22.5l-20 -6v-2q6 -2 16 -5.5t35.5 -16.5t45 -32.5t36 -57.5t16.5 -83q0 -115 -89 -191.5t-265 -76.5q-80 0 -148.5 14t-97.5 27z" />
<glyph unicode="&#xb4;" horiz-adv-x="782" d="M260 1147l182 309h269l-215 -309h-236z" />
<glyph unicode="&#xb5;" horiz-adv-x="1177" d="M-6 -422l203 1446h266l-90 -649q-2 -37 0 -77t32.5 -70.5t86.5 -30.5q92 0 170.5 101t97.5 226l69 500h267l-103 -727l-35 -297h-223l4 178h-2q-4 -8 -13 -22.5t-39 -50t-64.5 -62.5t-92 -49.5t-118.5 -22.5q-94 0 -121 39q0 -154 -41 -432h-254z" />
<glyph unicode="&#xb6;" horiz-adv-x="1400" d="M121 852q0 233 155.5 373.5t425.5 140.5h222l-193 -1366h-217l55 410q-10 0 -25.5 1t-62.5 11t-89 26.5t-94 49t-89 78t-62.5 117t-25.5 159.5zM354 858q0 -180 176 -233l70 -13l76 551q-137 0 -229.5 -80t-92.5 -225zM891 0l192 1366h217l-190 -1366h-219z" />
<glyph unicode="&#xb7;" horiz-adv-x="526" d="M80 575q0 72 52 123.5t124 51.5t123 -51.5t51 -123.5q0 -74 -51 -125t-123 -51t-124 51t-52 125z" />
<glyph unicode="&#xb8;" horiz-adv-x="782" d="M23 -481l28 162q37 -4 53 -5q94 0 129 53.5t35 164.5h211q4 -37 4 -64q0 -322 -331 -322q-70 1 -129 11z" />
<glyph unicode="&#xb9;" horiz-adv-x="591" d="M80 1012l16 184q61 18 130 47t106 47l37 21h182l-125 -879h-225l92 658q-98 -41 -213 -78z" />
<glyph unicode="&#xba;" horiz-adv-x="780" d="M-10 0l22 166h627l-25 -166h-624zM70 680q0 215 101 337t280 122q143 0 223 -67.5t80 -201.5q0 -213 -100.5 -334.5t-282.5 -121.5q-141 0 -221 67.5t-80 198.5zM293 717q-20 -137 86 -137q113 0 137 168l14 86q20 137 -88 137q-55 0 -89 -46t-46 -122z" />
<glyph unicode="&#xbb;" horiz-adv-x="1234" d="M2 78l358 477l-210 469h253l211 -477l-340 -469h-272zM526 78l359 477l-209 469h252l213 -477l-342 -469h-273z" />
<glyph unicode="&#xbc;" horiz-adv-x="1798" d="M80 1012l16 184q61 18 130 47t106 47l37 21h182l-125 -879h-225l92 658q-98 -41 -213 -78zM172 -164l1073 1706h248l-1073 -1706h-248zM942 190l29 197l372 492h314l-76 -508h119l-27 -181h-119l-28 -190h-221l26 190h-389zM1137 369q152 2 223 2l53 364h-2l-274 -364v-2 z" />
<glyph unicode="&#xbd;" horiz-adv-x="1746" d="M80 1012l16 184q61 18 130 47t106 47l37 21h182l-125 -879h-225l92 658q-98 -41 -213 -78zM172 -164l1073 1706h248l-1073 -1706h-248zM985 0l27 190q172 125 303 248q123 113 123 189q0 92 -105 92q-51 0 -108.5 -21.5t-89.5 -42.5l-31 -20l16 188q94 74 254 74 q154 0 223.5 -67.5t69.5 -165.5q0 -145 -156 -293q-45 -45 -104 -92.5t-96 -71.5l-35 -25v-2l323 -2l-24 -178h-590z" />
<glyph unicode="&#xbe;" horiz-adv-x="1937" d="M55 473l35 176q109 -59 219 -59q164 0 164 106q0 53 -44 81t-124 26l-147 -2l24 162l129 2q96 0 148.5 30.5t52.5 85.5q0 76 -131 76q-47 0 -103.5 -15.5t-89.5 -29.5l-30 -14l16 176q106 59 252 59q143 0 225 -58t82 -159q0 -53 -20.5 -96t-49 -67.5t-57 -41 t-49.5 -22.5l-20 -6v-2q6 -2 16 -5.5t35.5 -16.5t45 -32.5t36 -57.5t16.5 -83q0 -115 -89 -191.5t-265 -76.5q-80 0 -148.5 14t-97.5 27zM307 -164l1073 1706h248l-1071 -1706h-250zM1081 190l31 197l371 492h313l-74 -508h119l-29 -181h-116l-29 -190h-223l29 190h-392z M1276 369q152 2 225 2l53 364h-2l-276 -364v-2z" />
<glyph unicode="&#xbf;" horiz-adv-x="911" d="M59 268q0 102 52.5 181t152.5 165l23 19q127 109 133 244h250q0 -164 -117 -289l-23 -23q-2 -4 -8 -10l-10 -10q-4 -4 -12 -11.5t-13 -11.5q-2 -2 -4 -5t-5 -5t-5 -4q-12 -12 -20 -19q-2 -2 -6.5 -8t-6.5 -6q-98 -88 -98 -170q0 -51 39 -80.5t108 -29.5q55 0 112.5 19 t88.5 38l31 18l-23 -237q-102 -61 -276 -62q-168 0 -265.5 83t-97.5 214zM432 1237q0 70 46 115t116 45t116 -45t46 -115t-46 -115t-116 -45t-116 45t-46 115z" />
<glyph unicode="&#xc0;" horiz-adv-x="1349" d="M-33 0l635 1366h342l242 -1366h-283l-47 313h-471l-137 -313h-281zM475 532h354l-92 596h-2zM571 1784h265l96 -309h-232z" />
<glyph unicode="&#xc1;" horiz-adv-x="1349" d="M-33 0l635 1366h342l242 -1366h-283l-47 313h-471l-137 -313h-281zM475 532h354l-92 596h-2zM598 1475l184 309h269l-217 -309h-236z" />
<glyph unicode="&#xc2;" horiz-adv-x="1349" d="M-33 0l635 1366h342l242 -1366h-283l-47 313h-471l-137 -313h-281zM416 1475l264 311h272l178 -311h-229l-96 149l-135 -149h-254zM475 532h354l-92 596h-2z" />
<glyph unicode="&#xc3;" horiz-adv-x="1349" d="M-33 0l635 1366h342l242 -1366h-283l-47 313h-471l-137 -313h-281zM416 1518q0 29 7 64.5t26.5 86.5t67.5 85t118 34q51 0 149.5 -35t120.5 -35q27 0 42.5 17.5t17.5 33.5l2 19h194q0 -29 -7 -64.5t-26.5 -87t-68.5 -85t-119 -33.5q-53 0 -151.5 33.5t-118.5 33.5 q-27 0 -42.5 -16.5t-17.5 -32.5l-2 -18h-192zM475 532h354l-92 596h-2z" />
<glyph unicode="&#xc4;" horiz-adv-x="1349" d="M-33 0l635 1366h342l242 -1366h-283l-47 313h-471l-137 -313h-281zM406 1622q0 63 44 107.5t107.5 44.5t107.5 -44t44 -108q0 -61 -44 -105t-107.5 -44t-107.5 44t-44 105zM475 532h354l-92 596h-2zM877 1622q0 63 44 107.5t107 44.5q61 0 105.5 -44t44.5 -108 q0 -61 -44 -105t-106 -44q-63 0 -107 44t-44 105z" />
<glyph unicode="&#xc5;" horiz-adv-x="1349" d="M-33 0l635 1366h342l242 -1366h-283l-47 313h-471l-137 -313h-281zM475 532h354l-92 596h-2zM549 1661q0 94 67.5 157.5t170 63.5t170 -63.5t67.5 -157.5t-68.5 -157.5t-169 -63.5t-169 63.5t-68.5 157.5zM698 1661q0 -37 26 -63.5t62.5 -26.5t62 26.5t25.5 63.5 q0 39 -25.5 64.5t-62 25.5t-62.5 -25.5t-26 -64.5z" />
<glyph unicode="&#xc6;" horiz-adv-x="1785" d="M-49 0l887 1366h942l-31 -221l-504 -2l-45 -326h457l-31 -219h-457l-53 -375l512 -2l-31 -221h-774l49 350h-403l-223 -350h-295zM598 569h305l88 621h-2z" />
<glyph unicode="&#xc7;" horiz-adv-x="1024" d="M63 489q0 432 172.5 670t509.5 238q186 0 312 -74l-45 -221q-123 72 -271 72q-319 0 -379 -461l-12 -92q-31 -246 32.5 -337t209.5 -91q72 0 154.5 32.5t130.5 65.5l47 35l-21 -246q-14 -12 -43 -30.5t-126 -49.5t-206 -31q-465 0 -465 520zM176 -481l27 162q41 -4 55 -5 q94 0 129 53.5t35 164.5h211q2 -18 2 -64q0 -322 -332 -322q-68 1 -127 11z" />
<glyph unicode="&#xc8;" horiz-adv-x="1046" d="M61 0l193 1366h795l-31 -221l-524 -2l-48 -326h482l-31 -219h-481l-51 -375l524 -2l-31 -221h-797zM457 1784h262l96 -309h-229z" />
<glyph unicode="&#xc9;" horiz-adv-x="1046" d="M61 0l193 1366h795l-31 -221l-524 -2l-48 -326h482l-31 -219h-481l-51 -375l524 -2l-31 -221h-797zM487 1475l183 309h268l-215 -309h-236z" />
<glyph unicode="&#xca;" horiz-adv-x="1046" d="M61 0l193 1366h795l-31 -221l-524 -2l-48 -326h482l-31 -219h-481l-51 -375l524 -2l-31 -221h-797zM293 1475l264 311h272l179 -311h-230l-96 149l-135 -149h-254z" />
<glyph unicode="&#xcb;" horiz-adv-x="1046" d="M61 0l193 1366h795l-31 -221l-524 -2l-48 -326h482l-31 -219h-481l-51 -375l524 -2l-31 -221h-797zM272 1622q0 63 44 107.5t106 44.5q63 0 107 -44t44 -108q0 -61 -44 -105t-107 -44q-61 0 -105.5 44t-44.5 105zM741 1622q0 63 45 107.5t107 44.5q63 0 107 -44t44 -108 q0 -61 -44 -105t-107 -44q-61 0 -106.5 44t-45.5 105z" />
<glyph unicode="&#xcc;" horiz-adv-x="573" d="M61 0l193 1366h272l-192 -1366h-273zM213 1784h264l96 -309h-231z" />
<glyph unicode="&#xcd;" horiz-adv-x="573" d="M61 0l193 1366h272l-192 -1366h-273zM221 1475l182 309h269l-215 -309h-236z" />
<glyph unicode="&#xce;" horiz-adv-x="573" d="M37 1475l266 311h270l179 -311h-230l-94 149l-135 -149h-256zM61 0l193 1366h272l-192 -1366h-273z" />
<glyph unicode="&#xcf;" horiz-adv-x="573" d="M27 1622q0 63 45 107.5t106 44.5q63 0 107.5 -44t44.5 -108q0 -61 -44 -105t-108 -44q-61 0 -106 44t-45 105zM61 0l193 1366h272l-192 -1366h-273zM498 1622q0 63 44 107.5t107.5 44.5t107.5 -44t44 -108q0 -61 -44 -105t-107.5 -44t-107.5 44t-44 105z" />
<glyph unicode="&#xd0;" horiz-adv-x="1296" d="M-6 578l31 210h147l82 578h469q504 0 504 -489q0 -418 -185.5 -647.5t-539.5 -229.5h-441l82 578h-149zM362 219h130q184 0 294.5 107.5t139.5 304.5l20 151q29 197 -44 281t-236 84h-172l-52 -359h189l-31 -210h-186z" />
<glyph unicode="&#xd1;" horiz-adv-x="1353" d="M61 0l193 1366h272l402 -950h2l129 950h250l-193 -1366h-272l-402 950h-2l-129 -950h-250zM416 1518q0 29 7 64.5t26.5 86.5t67.5 85t118 34q51 0 149.5 -35t120.5 -35q27 0 42.5 17.5t17.5 33.5l2 19h194q0 -29 -7 -64.5t-26.5 -87t-68.5 -85t-119 -33.5 q-53 0 -151.5 33.5t-118.5 33.5q-27 0 -42.5 -16.5t-17.5 -32.5l-2 -18h-192z" />
<glyph unicode="&#xd2;" horiz-adv-x="1271" d="M63 485q0 438 173.5 675t488.5 237q500 0 500 -516q0 -440 -174 -676t-490 -236q-498 0 -498 516zM352 621q-29 -219 26.5 -322.5t196.5 -103.5q285 0 347 458l12 90q59 428 -223 428q-285 0 -346 -458zM569 1784h265l96 -309h-232z" />
<glyph unicode="&#xd3;" horiz-adv-x="1271" d="M63 485q0 438 173.5 675t488.5 237q500 0 500 -516q0 -440 -174 -676t-490 -236q-498 0 -498 516zM352 621q-29 -219 26.5 -322.5t196.5 -103.5q285 0 347 458l12 90q59 428 -223 428q-285 0 -346 -458zM557 1475l182 309h269l-217 -309h-234z" />
<glyph unicode="&#xd4;" horiz-adv-x="1271" d="M63 485q0 438 173.5 675t488.5 237q500 0 500 -516q0 -440 -174 -676t-490 -236q-498 0 -498 516zM352 621q-29 -219 26.5 -322.5t196.5 -103.5q285 0 347 458l12 90q59 428 -223 428q-285 0 -346 -458zM373 1475l264 311h272l178 -311h-229l-94 149l-137 -149h-254z" />
<glyph unicode="&#xd5;" horiz-adv-x="1271" d="M63 485q0 438 173.5 675t488.5 237q500 0 500 -516q0 -440 -174 -676t-490 -236q-498 0 -498 516zM352 621q-29 -219 26.5 -322.5t196.5 -103.5q285 0 347 458l12 90q59 428 -223 428q-285 0 -346 -458zM373 1518q0 29 7 64.5t26.5 86.5t68.5 85t119 34q49 0 148.5 -35 t119.5 -35q27 0 42.5 17.5t17.5 33.5l2 19h194q0 -29 -7 -64.5t-26.5 -87t-68.5 -85t-119 -33.5q-53 0 -150.5 33.5t-117.5 33.5q-27 0 -42.5 -16.5t-17.5 -32.5l-2 -18h-194z" />
<glyph unicode="&#xd6;" horiz-adv-x="1271" d="M63 485q0 438 173.5 675t488.5 237q500 0 500 -516q0 -440 -174 -676t-490 -236q-498 0 -498 516zM352 621q-29 -219 26.5 -322.5t196.5 -103.5q285 0 347 458l12 90q59 428 -223 428q-285 0 -346 -458zM375 1622q0 63 44 107.5t105 44.5q63 0 107.5 -44t44.5 -108 q0 -61 -44 -105t-108 -44q-61 0 -105 44t-44 105zM844 1622q0 63 45 107.5t106 44.5q63 0 107.5 -44t44.5 -108q0 -61 -44 -105t-108 -44q-61 0 -106 44t-45 105z" />
<glyph unicode="&#xd7;" horiz-adv-x="1257" d="M113 334l366 321l-276 324l174 151l278 -321l367 321l131 -151l-367 -324l277 -321l-174 -154l-277 322l-368 -322z" />
<glyph unicode="&#xd8;" horiz-adv-x="1263" d="M63 485q0 438 173.5 675t488.5 237q90 0 168 -19l94 207h133l-112 -250q217 -117 217 -454q0 -440 -174 -676t-490 -236q-90 0 -168 19l-92 -207h-133l113 248q-218 114 -218 456zM342 623q-33 -246 49 -351l412 897q-31 12 -92 13q-293 0 -357 -469zM485 195 q61 -12 90 -13q295 0 359 469l12 92q35 248 -49 351z" />
<glyph unicode="&#xd9;" horiz-adv-x="1320" d="M123 381q0 51 10 127l121 858h270l-125 -891q-18 -137 33 -208.5t170 -71.5q236 0 279 301l123 870h270l-121 -862q-39 -274 -178 -404.5t-393 -130.5q-459 0 -459 412zM569 1784h265l96 -309h-232z" />
<glyph unicode="&#xda;" horiz-adv-x="1320" d="M123 381q0 51 10 127l121 858h270l-125 -891q-18 -137 33 -208.5t170 -71.5q236 0 279 301l123 870h270l-121 -862q-39 -274 -178 -404.5t-393 -130.5q-459 0 -459 412zM590 1475l184 309h268l-217 -309h-235z" />
<glyph unicode="&#xdb;" horiz-adv-x="1320" d="M123 381q0 51 10 127l121 858h270l-125 -891q-18 -137 33 -208.5t170 -71.5q236 0 279 301l123 870h270l-121 -862q-39 -274 -178 -404.5t-393 -130.5q-459 0 -459 412zM406 1475l264 311h270l180 -311h-231l-94 149l-136 -149h-253z" />
<glyph unicode="&#xdc;" horiz-adv-x="1320" d="M123 381q0 51 10 127l121 858h270l-125 -891q-18 -137 33 -208.5t170 -71.5q236 0 279 301l123 870h270l-121 -862q-39 -274 -178 -404.5t-393 -130.5q-459 0 -459 412zM395 1622q0 63 44 107.5t106 44.5q63 0 107 -44t44 -108q0 -61 -44 -105t-107 -44q-61 0 -105.5 44 t-44.5 105zM864 1622q0 63 45 107.5t107 44.5q63 0 107 -44t44 -108q0 -61 -44 -105t-107 -44q-61 0 -106.5 44t-45.5 105z" />
<glyph unicode="&#xdd;" horiz-adv-x="1200" d="M119 1366h284l203 -651h2l391 651h289l-575 -897l-66 -469h-272l65 469zM518 1475l182 309h269l-215 -309h-236z" />
<glyph unicode="&#xde;" horiz-adv-x="1165" d="M61 0l193 1366h270l-32 -233h151q213 0 341 -90.5t128 -280.5q0 -250 -158.5 -377t-445.5 -127h-139l-37 -258h-271zM399 475h127q307 0 308 260q0 178 -224 178h-149z" />
<glyph unicode="&#xdf;" horiz-adv-x="1218" d="M-223 -424l41 203q35 -12 88 -12q117 0 135 147l162 1135q31 215 154.5 319.5t351.5 104.5q158 0 270.5 -73t112.5 -216q0 -53 -18.5 -99.5t-37 -70t-51.5 -60.5l-24 -28q-10 -10 -29 -29.5t-25 -28t-18 -23t-15.5 -23.5t-7.5 -22.5t-4 -27.5q0 -49 76 -129l25 -25 q61 -63 92.5 -124.5t31.5 -145.5q0 -180 -114.5 -278.5t-300.5 -98.5q-129 0 -238 45l37 207q84 -49 176 -49q63 0 109.5 35t46.5 98q0 76 -78 158l-25 27q-106 113 -106 237q0 45 18.5 89t36 67.5t62.5 81.5l24 26q33 41 46.5 58.5t24.5 45t11 56.5q0 49 -39 81t-100 32 q-178 0 -215 -242l-162 -1153q-23 -156 -116 -238t-244 -82q-43 0 -84 6.5t-62 12.5z" />
<glyph unicode="&#xe0;" horiz-adv-x="1157" d="M55 367q0 295 126 490.5t360 195.5q84 0 149.5 -29t87.5 -57l25 -27h2l12 84h256l-102 -729l-33 -295h-233l10 178h-2q-4 -8 -13.5 -22.5t-41 -50t-67.5 -62.5t-93.5 -49.5t-120.5 -22.5q-158 0 -240 100.5t-82 295.5zM330 438q-16 -115 19.5 -181.5t119.5 -66.5 q90 0 170 103.5t98 234.5l33 228l-22 22q-14 14 -61.5 37t-98.5 23q-98 0 -160.5 -78t-79.5 -197zM459 1477h262l96 -310h-229z" />
<glyph unicode="&#xe1;" horiz-adv-x="1157" d="M55 367q0 295 126 490.5t360 195.5q84 0 149.5 -29t87.5 -57l25 -27h2l12 84h256l-102 -729l-33 -295h-233l10 178h-2q-4 -8 -13.5 -22.5t-41 -50t-67.5 -62.5t-93.5 -49.5t-120.5 -22.5q-158 0 -240 100.5t-82 295.5zM330 438q-16 -115 19.5 -181.5t119.5 -66.5 q90 0 170 103.5t98 234.5l33 228l-22 22q-14 14 -61.5 37t-98.5 23q-98 0 -160.5 -78t-79.5 -197zM446 1167l183 310h268l-215 -310h-236z" />
<glyph unicode="&#xe2;" horiz-adv-x="1157" d="M55 367q0 295 126 490.5t360 195.5q84 0 149.5 -29t87.5 -57l25 -27h2l12 84h256l-102 -729l-33 -295h-233l10 178h-2q-4 -8 -13.5 -22.5t-41 -50t-67.5 -62.5t-93.5 -49.5t-120.5 -22.5q-158 0 -240 100.5t-82 295.5zM270 1167l265 312h272l178 -312h-229l-94 150 l-138 -150h-254zM330 438q-16 -115 19.5 -181.5t119.5 -66.5q90 0 170 103.5t98 234.5l33 228l-22 22q-14 14 -61.5 37t-98.5 23q-98 0 -160.5 -78t-79.5 -197z" />
<glyph unicode="&#xe3;" horiz-adv-x="1157" d="M55 367q0 295 126 490.5t360 195.5q84 0 149.5 -29t87.5 -57l25 -27h2l12 84h256l-102 -729l-33 -295h-233l10 178h-2q-4 -8 -13.5 -22.5t-41 -50t-67.5 -62.5t-93.5 -49.5t-120.5 -22.5q-158 0 -240 100.5t-82 295.5zM270 1210q0 29 7.5 65t27 87t68.5 85t119 34 q49 0 148 -35t120 -35q27 0 42 17.5t17 33.5l2 19h195q0 -29 -7.5 -65t-26.5 -87t-68.5 -85t-118.5 -34q-53 0 -150.5 34t-118.5 34q-27 0 -42 -16.5t-17 -32.5l-2 -19h-195zM330 438q-16 -115 19.5 -181.5t119.5 -66.5q90 0 170 103.5t98 234.5l33 228l-22 22 q-14 14 -61.5 37t-98.5 23q-98 0 -160.5 -78t-79.5 -197z" />
<glyph unicode="&#xe4;" horiz-adv-x="1157" d="M55 367q0 295 126 490.5t360 195.5q84 0 149.5 -29t87.5 -57l25 -27h2l12 84h256l-102 -729l-33 -295h-233l10 178h-2q-4 -8 -13.5 -22.5t-41 -50t-67.5 -62.5t-93.5 -49.5t-120.5 -22.5q-158 0 -240 100.5t-82 295.5zM272 1315q0 63 44 107t106 44q63 0 107 -44t44 -107 q0 -61 -44 -105.5t-107 -44.5q-61 0 -105.5 44.5t-44.5 105.5zM330 438q-16 -115 19.5 -181.5t119.5 -66.5q90 0 170 103.5t98 234.5l33 228l-22 22q-14 14 -61.5 37t-98.5 23q-98 0 -160.5 -78t-79.5 -197zM741 1315q0 63 45 107t107 44q63 0 107 -44t44 -107 q0 -61 -44 -105.5t-107 -44.5q-61 0 -106.5 44.5t-45.5 105.5z" />
<glyph unicode="&#xe5;" horiz-adv-x="1157" d="M55 367q0 295 126 490.5t360 195.5q84 0 149.5 -29t87.5 -57l25 -27h2l12 84h256l-102 -729l-33 -295h-233l10 178h-2q-4 -8 -13.5 -22.5t-41 -50t-67.5 -62.5t-93.5 -49.5t-120.5 -22.5q-158 0 -240 100.5t-82 295.5zM330 438q-16 -115 19.5 -181.5t119.5 -66.5 q90 0 170 103.5t98 234.5l33 228l-22 22q-14 14 -61.5 37t-98.5 23q-98 0 -160.5 -78t-79.5 -197zM406 1354q0 94 67.5 157.5t169.5 63.5t170 -63.5t68 -157.5t-69 -157.5t-169 -63.5t-168.5 63.5t-68.5 157.5zM555 1354q0 -37 25.5 -63.5t62.5 -26.5t62.5 26.5t25.5 63.5 q0 39 -25.5 64.5t-62.5 25.5t-62.5 -25.5t-25.5 -64.5z" />
<glyph unicode="&#xe6;" horiz-adv-x="1646" d="M18 250q0 190 148.5 283.5t370.5 93.5q84 0 141 -13l12 82q10 72 -43 109t-143 37q-72 0 -152 -20.5t-123 -41.5l-45 -20l13 211q154 82 346 82q74 0 134 -16.5t93 -41t55.5 -49t30.5 -41.5l8 -16h2q4 6 13.5 17.5t40 40t67.5 50t97.5 39t125.5 17.5q182 0 276.5 -83 t94.5 -222q0 -90 -58.5 -160t-155.5 -111t-212 -60.5t-242 -19.5l-2 -8q-8 -90 47.5 -148.5t163.5 -58.5q82 0 167 31t128 61l43 31l-18 -227q-16 -12 -46 -29.5t-126 -47.5t-199 -30q-80 0 -145.5 20.5t-101.5 51.5t-60.5 60.5t-32.5 50.5l-8 20h-2q-4 -8 -13.5 -21.5 t-41 -49t-70.5 -62.5t-105.5 -48.5t-142.5 -21.5q-141 0 -235.5 72t-94.5 207zM291 285q0 -57 35.5 -88t91.5 -31q92 0 154.5 73.5t76.5 170.5l6 39q-47 10 -106 10q-123 0 -190.5 -48t-67.5 -126zM930 575q178 0 290.5 46.5t112.5 126.5q0 125 -135 124q-98 0 -174 -79 t-94 -218z" />
<glyph unicode="&#xe7;" horiz-adv-x="868" d="M49 358q0 322 139.5 508.5t393.5 186.5q72 0 135 -12.5t90 -24.5l29 -15l-41 -208q-80 45 -199 45q-100 0 -170 -77t-90 -214l-14 -111q-18 -131 30.5 -190.5t136.5 -59.5q123 0 254 93l-20 -224q-12 -10 -34.5 -23.5t-103.5 -37t-171 -23.5q-190 0 -277.5 104.5 t-87.5 282.5zM84 -481l29 162q37 -4 53 -5q94 0 129 53.5t35 164.5h211q4 -37 4 -64q0 -322 -332 -322q-70 1 -129 11z" />
<glyph unicode="&#xe8;" horiz-adv-x="1042" d="M49 373q0 330 158 505t401 175q182 0 276.5 -83t94.5 -222q0 -90 -58.5 -160t-156.5 -111t-213 -60.5t-242 -19.5v-8q-8 -90 46.5 -148.5t162.5 -58.5q82 0 167 31t130 61l43 31l-20 -227q-16 -12 -45 -29.5t-125.5 -47.5t-198.5 -30q-201 0 -310.5 101.5t-109.5 300.5z M326 575q178 0 291.5 46.5t113.5 126.5q0 125 -137 124q-98 0 -174 -79t-94 -218zM426 1477h264l96 -310h-231z" />
<glyph unicode="&#xe9;" horiz-adv-x="1042" d="M49 373q0 330 158 505t401 175q182 0 276.5 -83t94.5 -222q0 -90 -58.5 -160t-156.5 -111t-213 -60.5t-242 -19.5v-8q-8 -90 46.5 -148.5t162.5 -58.5q82 0 167 31t130 61l43 31l-20 -227q-16 -12 -45 -29.5t-125.5 -47.5t-198.5 -30q-201 0 -310.5 101.5t-109.5 300.5z M326 575q178 0 291.5 46.5t113.5 126.5q0 125 -137 124q-98 0 -174 -79t-94 -218zM414 1167l182 310h268l-217 -310h-233z" />
<glyph unicode="&#xea;" horiz-adv-x="1042" d="M49 373q0 330 158 505t401 175q182 0 276.5 -83t94.5 -222q0 -90 -58.5 -160t-156.5 -111t-213 -60.5t-242 -19.5v-8q-8 -90 46.5 -148.5t162.5 -58.5q82 0 167 31t130 61l43 31l-20 -227q-16 -12 -45 -29.5t-125.5 -47.5t-198.5 -30q-201 0 -310.5 101.5t-109.5 300.5z M229 1167l265 312h272l178 -312h-229l-94 150l-138 -150h-254zM326 575q178 0 291.5 46.5t113.5 126.5q0 125 -137 124q-98 0 -174 -79t-94 -218z" />
<glyph unicode="&#xeb;" horiz-adv-x="1042" d="M49 373q0 330 158 505t401 175q182 0 276.5 -83t94.5 -222q0 -90 -58.5 -160t-156.5 -111t-213 -60.5t-242 -19.5v-8q-8 -90 46.5 -148.5t162.5 -58.5q82 0 167 31t130 61l43 31l-20 -227q-16 -12 -45 -29.5t-125.5 -47.5t-198.5 -30q-201 0 -310.5 101.5t-109.5 300.5z M229 1315q0 63 44 107t108 44q61 0 106 -44t45 -107q0 -61 -45 -105.5t-106 -44.5q-63 0 -107.5 44.5t-44.5 105.5zM326 575q178 0 291.5 46.5t113.5 126.5q0 125 -137 124q-98 0 -174 -79t-94 -218zM700 1315q0 63 44 107t108 44q61 0 105 -44t44 -107q0 -61 -44 -105.5 t-105 -44.5q-63 0 -107.5 44.5t-44.5 105.5z" />
<glyph unicode="&#xec;" horiz-adv-x="550" d="M57 0l144 1024h266l-143 -1024h-267zM182 1477h264l95 -310h-230z" />
<glyph unicode="&#xed;" horiz-adv-x="550" d="M57 0l144 1024h266l-143 -1024h-267zM168 1167l184 310h269l-218 -310h-235z" />
<glyph unicode="&#xee;" horiz-adv-x="550" d="M-14 1167l264 312h272l178 -312h-229l-96 150l-135 -150h-254zM57 0l144 1024h266l-143 -1024h-267z" />
<glyph unicode="&#xef;" horiz-adv-x="550" d="M-14 1315q0 63 44 107t105 44q63 0 107.5 -44t44.5 -107q0 -61 -44 -105.5t-108 -44.5q-61 0 -105 44.5t-44 105.5zM57 0l144 1024h266l-143 -1024h-267zM455 1315q0 63 45 107t106 44q63 0 107.5 -44t44.5 -107q0 -61 -44 -105.5t-108 -44.5q-61 0 -106 44.5t-45 105.5z " />
<glyph unicode="&#xf0;" horiz-adv-x="1128" d="M59 373q0 236 118 383t349 147q76 0 152 -31.5t113 -91.5h2q20 154 -2 273l-238 -111l25 172l139 66q-61 82 -176 82q-145 0 -279 -54l19 213q147 51 294 52q260 0 383 -183l216 101l-25 -170l-127 -60q35 -113 35 -268q0 -131 -13.5 -250t-51.5 -246t-100.5 -218 t-168 -150.5t-244.5 -59.5q-190 0 -305 107t-115 297zM322 377q0 -88 44 -142.5t134 -54.5q121 0 185.5 101.5t64.5 224.5q0 86 -51.5 138t-139.5 52q-121 0 -179 -97t-58 -222z" />
<glyph unicode="&#xf1;" horiz-adv-x="1189" d="M53 0l146 1024h241l-24 -184h2q4 8 14 22.5t45 51t74 65.5t103.5 51.5t131.5 22.5q137 0 210 -79t73 -216q0 -41 -6 -80l-94 -678h-267l93 649q8 70 -16.5 124t-106.5 54q-100 0 -183 -112.5t-104 -247.5l-66 -467h-266zM324 1210q0 29 7 65t26.5 87t67.5 85t118 34 q51 0 149.5 -35t120.5 -35q27 0 42 17.5t17 33.5l2 19h193q0 -29 -7 -65t-26.5 -87t-67.5 -85t-118 -34q-55 0 -152.5 34t-117.5 34q-27 0 -42.5 -16.5t-17.5 -32.5l-2 -19h-192z" />
<glyph unicode="&#xf2;" horiz-adv-x="1099" d="M57 362q0 328 142.5 509.5t394.5 181.5q203 0 310.5 -97.5t107.5 -293.5q0 -326 -142.5 -508.5t-396.5 -182.5q-201 0 -308.5 97t-107.5 294zM326 424q-16 -121 23.5 -186.5t136 -65.5t156.5 81t81 212l20 135q16 121 -23.5 186.5t-137.5 65.5q-96 0 -155.5 -80 t-80.5 -211zM438 1477h262l97 -310h-230z" />
<glyph unicode="&#xf3;" horiz-adv-x="1099" d="M57 362q0 328 142.5 509.5t394.5 181.5q203 0 310.5 -97.5t107.5 -293.5q0 -326 -142.5 -508.5t-396.5 -182.5q-201 0 -308.5 97t-107.5 294zM326 424q-16 -121 23.5 -186.5t136 -65.5t156.5 81t81 212l20 135q16 121 -23.5 186.5t-137.5 65.5q-96 0 -155.5 -80 t-80.5 -211zM424 1167l182 310h268l-215 -310h-235z" />
<glyph unicode="&#xf4;" horiz-adv-x="1099" d="M57 362q0 328 142.5 509.5t394.5 181.5q203 0 310.5 -97.5t107.5 -293.5q0 -326 -142.5 -508.5t-396.5 -182.5q-201 0 -308.5 97t-107.5 294zM262 1167l264 312h271l180 -312h-232l-94 150l-135 -150h-254zM326 424q-16 -121 23.5 -186.5t136 -65.5t156.5 81t81 212 l20 135q16 121 -23.5 186.5t-137.5 65.5q-96 0 -155.5 -80t-80.5 -211z" />
<glyph unicode="&#xf5;" horiz-adv-x="1099" d="M57 362q0 328 142.5 509.5t394.5 181.5q203 0 310.5 -97.5t107.5 -293.5q0 -326 -142.5 -508.5t-396.5 -182.5q-201 0 -308.5 97t-107.5 294zM260 1210q0 29 7 65t26.5 87t68 85t117.5 34q51 0 149.5 -35t121.5 -35q27 0 42 17.5t17 33.5l2 19h193q0 -29 -7.5 -65 t-27 -87t-67.5 -85t-118 -34q-53 0 -151 34t-119 34q-27 0 -42 -16.5t-17 -32.5l-2 -19h-193zM326 424q-16 -121 23.5 -186.5t136 -65.5t156.5 81t81 212l20 135q16 121 -23.5 186.5t-137.5 65.5q-96 0 -155.5 -80t-80.5 -211z" />
<glyph unicode="&#xf6;" horiz-adv-x="1099" d="M57 362q0 328 142.5 509.5t394.5 181.5q203 0 310.5 -97.5t107.5 -293.5q0 -326 -142.5 -508.5t-396.5 -182.5q-201 0 -308.5 97t-107.5 294zM260 1315q0 63 44 107t107.5 44t107.5 -44t44 -107q0 -61 -44 -105.5t-107.5 -44.5t-107.5 44.5t-44 105.5zM326 424 q-16 -121 23.5 -186.5t136 -65.5t156.5 81t81 212l20 135q16 121 -23.5 186.5t-137.5 65.5q-96 0 -155.5 -80t-80.5 -211zM731 1315q0 63 44 107t107.5 44t107.5 -44t44 -107q0 -61 -44 -105.5t-107.5 -44.5t-107.5 44.5t-44 105.5z" />
<glyph unicode="&#xf7;" horiz-adv-x="1257" d="M123 551l31 209h989l-29 -209h-991zM440 262q0 57 40 97t97.5 40t97.5 -40t40 -97t-40 -97t-97.5 -40t-97.5 40t-40 97zM551 1046.5q0 57.5 40 97.5t97 40t97 -40t40 -97.5t-40 -97.5t-97 -40t-97 40t-40 97.5z" />
<glyph unicode="&#xf8;" horiz-adv-x="1099" d="M57 362q0 328 142.5 509.5t394.5 181.5q63 0 111 -9l92 205h133l-109 -239q190 -88 191 -348q0 -326 -142.5 -508.5t-396.5 -182.5q-53 0 -111 11l-94 -209h-127l107 241q-191 88 -191 348zM315 426q-18 -131 37 -197l275 629l-9 2q-8 0 -18 1t-18 1q-102 0 -165 -85 t-81 -216zM440 166l9 -2q8 0 18 -1t18 -1q102 0 166 85t84 216l19 135q23 133 -37 199z" />
<glyph unicode="&#xf9;" horiz-adv-x="1183" d="M96 266q0 37 6 78l95 680h266l-90 -649q-10 -76 17.5 -127t101.5 -51q90 0 171.5 110.5t100.5 243.5l65 473h267l-103 -727l-35 -297h-227l10 199h-2q-4 -10 -13 -25.5t-41 -54.5t-69.5 -70t-102 -55.5t-134.5 -24.5q-137 0 -210 80t-73 217zM483 1477h265l96 -310h-232z " />
<glyph unicode="&#xfa;" horiz-adv-x="1183" d="M96 266q0 37 6 78l95 680h266l-90 -649q-10 -76 17.5 -127t101.5 -51q90 0 171.5 110.5t100.5 243.5l65 473h267l-103 -727l-35 -297h-227l10 199h-2q-4 -10 -13 -25.5t-41 -54.5t-69.5 -70t-102 -55.5t-134.5 -24.5q-137 0 -210 80t-73 217zM471 1167l182 310h269 l-215 -310h-236z" />
<glyph unicode="&#xfb;" horiz-adv-x="1183" d="M96 266q0 37 6 78l95 680h266l-90 -649q-10 -76 17.5 -127t101.5 -51q90 0 171.5 110.5t100.5 243.5l65 473h267l-103 -727l-35 -297h-227l10 199h-2q-4 -10 -13 -25.5t-41 -54.5t-69.5 -70t-102 -55.5t-134.5 -24.5q-137 0 -210 80t-73 217zM299 1167l264 312h273 l178 -312h-232l-94 150l-135 -150h-254z" />
<glyph unicode="&#xfc;" horiz-adv-x="1183" d="M96 266q0 37 6 78l95 680h266l-90 -649q-10 -76 17.5 -127t101.5 -51q90 0 171.5 110.5t100.5 243.5l65 473h267l-103 -727l-35 -297h-227l10 199h-2q-4 -10 -13 -25.5t-41 -54.5t-69.5 -70t-102 -55.5t-134.5 -24.5q-137 0 -210 80t-73 217zM299 1315q0 63 44 107 t106 44q63 0 107 -44t44 -107q0 -61 -44 -105.5t-107 -44.5q-61 0 -105.5 44.5t-44.5 105.5zM768 1315q0 63 44 107t107.5 44t107.5 -44t44 -107q0 -61 -44 -105.5t-107.5 -44.5t-107.5 44.5t-44 105.5z" />
<glyph unicode="&#xfd;" horiz-adv-x="1103" d="M57 -428q70 111 136.5 221.5t97.5 165.5l33 55l-238 1010h264l146 -770h2l358 770h279q-43 -90 -118 -242.5t-278.5 -538.5t-376.5 -671h-305zM414 1167l184 310h268l-217 -310h-235z" />
<glyph unicode="&#xfe;" horiz-adv-x="1157" d="M-12 -420l260 1864h266l-80 -563h2l13 18q8 12 37.5 42t63.5 52.5t88 41t112 18.5q160 0 239.5 -100.5t79.5 -282.5q0 -133 -28.5 -254t-85 -222.5t-153.5 -162t-224 -60.5q-162 0 -248 99l-6 8h-2l-70 -498h-264zM350 281q6 -10 20.5 -25.5t61.5 -42.5t103 -27 q102 0 163.5 78t77.5 197l21 137q16 113 -23 174.5t-123 61.5q-94 0 -174 -106.5t-98 -246.5z" />
<glyph unicode="&#xff;" horiz-adv-x="1103" d="M57 -428q70 111 136.5 221.5t97.5 165.5l33 55l-238 1010h264l146 -770h2l358 770h279q-43 -90 -118 -242.5t-278.5 -538.5t-376.5 -671h-305zM231 1315q0 63 44 107t106 44q63 0 107 -44t44 -107q0 -61 -44 -105.5t-107 -44.5q-61 0 -105.5 44.5t-44.5 105.5zM700 1315 q0 63 45.5 107t106.5 44q63 0 107.5 -44t44.5 -107q0 -61 -44.5 -105.5t-107.5 -44.5q-61 0 -106.5 44.5t-45.5 105.5z" />
<glyph unicode="&#x131;" horiz-adv-x="550" d="M57 0l144 1024h266l-143 -1024h-267z" />
<glyph unicode="&#x141;" horiz-adv-x="995" d="M-10 537l30 227l160 74l74 528h270l-55 -395l217 100l-33 -227l-217 -103l-71 -520l507 -2l-30 -219h-781l86 610z" />
<glyph unicode="&#x142;" horiz-adv-x="550" d="M-29 537l33 227l172 82l84 598h266l-65 -469l166 78l-33 -228l-166 -77l-104 -748h-267l86 616z" />
<glyph unicode="&#x152;" horiz-adv-x="1796" d="M63 485q0 444 166 678t449 234q74 0 135 -18.5t97 -45t59.5 -53.5t34.5 -45l8 -18h2l20 149h764l-31 -221l-526 -2l-45 -326h479l-30 -219h-480l-53 -375l545 -2l-31 -221h-782l18 137h-2q-4 -6 -12 -17t-39 -41t-66.5 -51.5t-96 -40t-128.5 -18.5q-219 0 -337 129 t-118 387zM350 621q-57 -426 217 -426q272 0 330 442l18 135q53 399 -217 399q-272 0 -333 -452z" />
<glyph unicode="&#x153;" horiz-adv-x="1705" d="M57 362q0 326 140.5 508.5t384.5 182.5q217 0 317 -154l21 -35h2q4 8 13 20.5t42 45.5t71.5 57.5t103.5 45t136 20.5q180 0 275.5 -83t95.5 -222q0 -90 -58.5 -160t-156.5 -111t-213 -60.5t-242 -19.5v-8q-8 -90 46.5 -148.5t162.5 -58.5q82 0 167 31t130 61l43 31 l-20 -227q-16 -12 -46 -29.5t-126.5 -47.5t-198.5 -30q-78 0 -139.5 19.5t-94 46t-54 53.5t-28.5 45l-8 21h-2q-4 -8 -11 -20.5t-37 -44.5t-65.5 -56.5t-99 -44t-135.5 -19.5q-201 0 -308.5 97t-107.5 294zM326 424q-18 -119 22.5 -185.5t137 -66.5t156.5 81t81 212l20 135 q16 121 -23.5 186.5t-137.5 65.5q-96 0 -156.5 -81t-79.5 -210zM1006 575q178 0 290.5 46.5t112.5 126.5q0 125 -135 124q-98 0 -174 -79t-94 -218z" />
<glyph unicode="&#x160;" horiz-adv-x="1060" d="M8 66l45 229q14 -12 42 -28.5t122 -45t201 -28.5q111 0 179.5 51t68.5 137q0 63 -48.5 108.5t-160.5 96.5l-21 10q-291 135 -291 379q0 193 139.5 307.5t374.5 114.5q203 -2 357 -80l-45 -227q-14 10 -41 23t-112 37t-173 24q-98 0 -158.5 -42t-60.5 -122 q0 -61 54.5 -105.5t170.5 -99.5l21 -10q276 -127 276 -359q0 -217 -148.5 -342t-398.5 -125q-229 0 -387 92zM324 1786h237l94 -150l138 150h245l-264 -311h-272z" />
<glyph unicode="&#x161;" horiz-adv-x="917" d="M12 43l43 207q119 -82 277 -82q78 0 131 29.5t53 93.5q0 43 -36 69.5t-107 57.5l-35 14q-233 92 -234 291q0 158 117 244t301 86q86 0 166 -18.5t117 -35.5l37 -18l-39 -209q-137 84 -275 84q-57 0 -104 -22.5t-47 -75.5q0 -41 30.5 -67.5t98.5 -55.5l35 -14 q115 -45 182.5 -112t67.5 -181q0 -178 -130.5 -267.5t-324.5 -89.5q-88 0 -169 18.5t-118 35.5zM201 1479h237l94 -150l138 150h245l-264 -312h-272z" />
<glyph unicode="&#x178;" horiz-adv-x="1200" d="M119 1366h284l203 -651h2l391 651h289l-575 -897l-66 -469h-272l65 469zM334 1622q0 63 44 107.5t105 44.5q63 0 107.5 -44t44.5 -108q0 -61 -44 -105t-108 -44q-61 0 -105 44t-44 105zM803 1622q0 63 45 107.5t106 44.5q63 0 107.5 -44t44.5 -108q0 -61 -44 -105 t-108 -44q-61 0 -106 44t-45 105z" />
<glyph unicode="&#x17d;" horiz-adv-x="1079" d="M-80 0l762 1143l-526 2l32 221h947l-762 -1143l579 -2l-30 -221h-1002zM334 1786h237l97 -150l135 150h246l-265 -311h-272z" />
<glyph unicode="&#x17e;" horiz-adv-x="1001" d="M-41 0l580 811l-396 2l29 211h803l-578 -811l453 -2l-29 -211h-862zM262 1479h236l96 -150l135 150h246l-264 -312h-271z" />
<glyph unicode="&#x192;" d="M166 -6l35 196q37 -14 92 -14q117 0 131 148l33 272h-230l37 174h215l37 303q18 158 108.5 240t241.5 82l160 -23l-35 -196q-35 14 -92 14q-117 0 -131 -148l-33 -272h230l-37 -174h-215l-37 -303q-18 -158 -108.5 -241t-241.5 -83q-43 0 -83 6.5t-59 12.5z" />
<glyph unicode="&#x2c6;" horiz-adv-x="782" d="M106 1147l265 311h272l178 -311h-229l-94 149l-138 -149h-254z" />
<glyph unicode="&#x2c7;" horiz-adv-x="782" d="M150 1458h237l96 -149l135 149h246l-264 -311h-272z" />
<glyph unicode="&#x2d8;" horiz-adv-x="782" d="M174 1456h209q0 -133 113 -133q59 0 93 34t38 68l4 33l209 -2q0 -12 -2 -33.5t-21.5 -77t-52.5 -97.5t-103.5 -76.5t-166.5 -34.5q-90 0 -155 26.5t-95.5 58t-48 84t-19.5 81t-2 69.5z" />
<glyph unicode="&#x2d9;" horiz-adv-x="782" d="M328 1317q0 66 47 113t112 47q68 0 115 -47.5t47 -112.5q0 -68 -47 -115t-115 -47q-66 0 -112.5 47t-46.5 115z" />
<glyph unicode="&#x2da;" horiz-adv-x="782" d="M250 1333q0 94 67.5 157.5t170 63.5t171 -63.5t68.5 -157.5t-68.5 -157.5t-171.5 -63.5q-100 0 -168.5 63.5t-68.5 157.5zM399 1333q0 -37 26 -63.5t62.5 -26.5t62 26.5t25.5 63.5q0 39 -25.5 64.5t-62 25.5t-62.5 -25.5t-26 -64.5z" />
<glyph unicode="&#x2db;" horiz-adv-x="782" d="M53 -293q0 80 43 187h211q-25 -66 -24 -113q0 -104 129 -105q14 0 51 5l-17 -162q-61 -10 -129 -11q-264 0 -264 199z" />
<glyph unicode="&#x2dc;" horiz-adv-x="782" d="M117 1190q0 29 7 64.5t26.5 87t67.5 85t118 33.5q51 0 149.5 -34.5t120.5 -34.5q27 0 42.5 17t17.5 34l2 18h192q0 -29 -7 -64.5t-26.5 -87t-67.5 -85t-118 -33.5q-53 0 -151.5 33.5t-118.5 33.5q-27 0 -42.5 -16t-17.5 -33l-2 -18h-192z" />
<glyph unicode="&#x2dd;" horiz-adv-x="782" d="M35 1147l182 309h268l-215 -309h-235zM485 1147l183 309h268l-215 -309h-236z" />
<glyph unicode="&#x2000;" horiz-adv-x="940" />
<glyph unicode="&#x2001;" horiz-adv-x="1882" />
<glyph unicode="&#x2002;" horiz-adv-x="940" />
<glyph unicode="&#x2003;" horiz-adv-x="1882" />
<glyph unicode="&#x2004;" horiz-adv-x="626" />
<glyph unicode="&#x2005;" horiz-adv-x="468" />
<glyph unicode="&#x2006;" horiz-adv-x="313" />
<glyph unicode="&#x2007;" horiz-adv-x="313" />
<glyph unicode="&#x2008;" horiz-adv-x="233" />
<glyph unicode="&#x2009;" horiz-adv-x="374" />
<glyph unicode="&#x200a;" horiz-adv-x="104" />
<glyph unicode="&#x2010;" horiz-adv-x="720" d="M57 467l31 215h559l-31 -215h-559z" />
<glyph unicode="&#x2011;" horiz-adv-x="720" d="M57 467l31 215h559l-31 -215h-559z" />
<glyph unicode="&#x2012;" horiz-adv-x="720" d="M57 467l31 215h559l-31 -215h-559z" />
<glyph unicode="&#x2013;" horiz-adv-x="1081" d="M6 465l31 219h1024l-31 -219h-1024z" />
<glyph unicode="&#x2014;" horiz-adv-x="2105" d="M6 465l31 219h2048l-31 -219h-2048z" />
<glyph unicode="&#x2018;" horiz-adv-x="573" d="M109 827l274 539h215l-217 -539h-272z" />
<glyph unicode="&#x2019;" horiz-adv-x="573" d="M109 827l217 539h272l-274 -539h-215z" />
<glyph unicode="&#x201a;" horiz-adv-x="573" d="M-66 -256l218 539h272l-272 -539h-218z" />
<glyph unicode="&#x201c;" horiz-adv-x="1034" d="M109 827l274 539h215l-217 -539h-272zM569 827l275 539h215l-217 -539h-273z" />
<glyph unicode="&#x201d;" horiz-adv-x="1034" d="M109 827l217 539h272l-274 -539h-215zM569 827l215 539h275l-275 -539h-215z" />
<glyph unicode="&#x201e;" horiz-adv-x="1050" d="M-66 -256l218 539h272l-272 -539h-218zM395 -256l217 539h273l-275 -539h-215z" />
<glyph unicode="&#x2020;" horiz-adv-x="1064" d="M106 811l29 213h320l57 401h264l-55 -401h319l-30 -213h-320l-112 -811h-267l115 811h-320z" />
<glyph unicode="&#x2021;" horiz-adv-x="1064" d="M43 356l29 215h319l41 283h-319l28 215h320l51 356h264l-49 -356h320l-31 -215h-320l-39 -283h320l-31 -215h-319l-49 -356h-267l51 356h-319z" />
<glyph unicode="&#x2022;" horiz-adv-x="815" d="M109 696q0 131 88 218t219 87q133 0 220 -86t87 -219t-87 -218t-218 -85t-220 86t-89 217z" />
<glyph unicode="&#x2026;" horiz-adv-x="1726" d="M57 137q0 74 51.5 126t125 52t126 -52t52.5 -126t-52.5 -126t-126 -52t-125 52t-51.5 126zM616 137q0 74 52.5 126t126.5 52q72 0 124 -52t52 -126t-52.5 -126t-123.5 -52q-74 0 -126.5 52t-52.5 126zM1176 137q0 74 52 126t126 52q72 0 124 -52t52 -126t-52.5 -126 t-123.5 -52q-74 0 -126 52t-52 126z" />
<glyph unicode="&#x202f;" horiz-adv-x="374" />
<glyph unicode="&#x2030;" horiz-adv-x="2304" d="M123 926q0 180 93 297.5t261 117.5q133 0 213 -80.5t80 -213.5q0 -180 -94 -298t-262 -118q-133 0 -212 81t-79 214zM219 0l928 1311h248l-926 -1311h-250zM326 952q-10 -63 14.5 -105t79.5 -42q59 0 94 42t43 107l8 66q10 61 -14.5 103t-77.5 42q-59 0 -94 -42t-45 -105 zM842 264q0 180 94 298t262 118q133 0 212 -80t79 -213q0 -182 -93 -300t-261 -118q-133 0 -213 81t-80 214zM1044 293q-8 -63 16.5 -105.5t78.5 -42.5q59 0 94 42t43 106l10 65q8 63 -15.5 105.5t-78.5 42.5q-59 0 -94 -42t-43 -106zM1538 264q0 180 94 298t262 118 q133 0 212 -80t79 -213q0 -182 -93 -300t-261 -118q-133 0 -213 81t-80 214zM1741 293q-8 -63 16.5 -105.5t77.5 -42.5q59 0 94 42t45 106l8 65q8 63 -15 105.5t-79 42.5q-59 0 -94 -42t-43 -106z" />
<glyph unicode="&#x2039;" horiz-adv-x="712" d="M70 555l342 469h270l-356 -477l209 -469h-252z" />
<glyph unicode="&#x203a;" horiz-adv-x="712" d="M2 78l356 477l-208 469h251l213 -477l-342 -469h-270z" />
<glyph unicode="&#x2044;" horiz-adv-x="495" d="M-385 -164l1073 1706h250l-1073 -1706h-250z" />
<glyph unicode="&#x205f;" horiz-adv-x="468" />
<glyph unicode="&#x20ac;" d="M51 418l35 172h158q6 111 20 188h-162l35 172h166q139 444 547 445q76 0 140.5 -13.5t90.5 -25.5l29 -13l-41 -213q-90 49 -225 50q-178 0 -269 -230h365l-37 -172h-377l-24 -188h387l-37 -172h-354q10 -231 200 -232q63 0 129 21.5t99 42.5l35 20l-23 -229 q-106 -72 -299 -72q-379 0 -395 449h-193z" />
<glyph unicode="&#x2122;" horiz-adv-x="1488" d="M150 1225l20 141h500l-21 -141h-164l-69 -490h-170l67 490h-163zM631 735l135 631h152l118 -281h2l197 281h168l-41 -631h-154l37 406h-2l-237 -338l-144 338h-2l-76 -406h-153z" />
<glyph unicode="&#x2212;" horiz-adv-x="1257" d="M123 551l31 209h989l-29 -209h-991z" />
<glyph unicode="&#xe000;" horiz-adv-x="1025" d="M0 1025h1025v-1025h-1025v1025z" />
<glyph unicode="&#xfb01;" horiz-adv-x="1298" d="M-147 -424l43 203q37 -12 92 -12q119 0 139 147l125 897h-219l28 213h222l18 129q23 156 118 238t253 82q41 0 85 -6.5t66 -12.5l23 -6l-37 -203q-47 12 -102 12q-125 0 -148 -147l-10 -86h250l-29 -213h-252l-133 -940q-20 -156 -114.5 -238t-250.5 -82zM805 0l143 1024 h266l-143 -1024h-266zM950 1305q0 68 48.5 115.5t115.5 47.5q70 0 118 -48t48 -115q0 -70 -48 -118t-118 -48q-68 0 -116 48t-48 118z" />
<glyph unicode="&#xfb02;" horiz-adv-x="1300" d="M-147 -424l43 203q37 -12 92 -12q119 0 139 147l125 897h-219l28 213h222l18 129q23 156 118 238t253 82q41 0 85 -6.5t66 -12.5l23 -6l-37 -203q-47 12 -102 12q-125 0 -148 -147l-10 -86h250l-29 -213h-252l-133 -940q-20 -156 -114.5 -238t-250.5 -82zM807 0l203 1444 h264l-203 -1444h-264z" />
</font>
</defs>
</svg>
